<svg width="1280" height="192" viewBox="0 0 1280 192" fill="none" xmlns="http://www.w3.org/2000/svg">
<rect width="1280" height="192" rx="24" fill="url(#paint0_linear_1_2)"/>
<rect x="32" y="32" width="128" height="128" rx="16" fill="url(#paint1_linear_1_2)"/>
<g style="mix-blend-mode:soft-light" opacity="0.75">
<path d="M119.95 99.1501C131.44 99.1501 140.75 108.46 140.75 119.95C140.75 124.54 139.26 128.78 136.75 132.22L149.41 144.89C150.66 146.14 150.66 148.17 149.41 149.42C148.16 150.67 146.13 150.67 144.88 149.42L132.22 136.75C128.78 139.26 124.54 140.75 119.95 140.75C119.645 140.75 119.342 140.742 119.04 140.729C119.065 140.73 119.091 140.732 119.116 140.733C119.037 140.73 118.958 140.727 118.88 140.723C118.793 140.719 118.707 140.713 118.621 140.708C118.648 140.709 118.674 140.71 118.701 140.712C107.793 140.066 99.1501 131.021 99.1501 119.95C99.1502 108.46 108.46 99.1502 119.95 99.1501ZM128 51.2C135.06 51.2 140.8 56.9399 140.801 63.9998V105.092C139.053 102.643 136.884 100.515 134.4 98.8142V83.2H115.2V94.7898C112.949 95.212 110.802 95.9286 108.801 96.8982V83.2H83.2V105.6H98.7458C97.4192 107.557 96.3562 109.707 95.6082 112H83.2V134.4H98.8142C100.515 136.884 102.643 139.053 105.092 140.801H63.9998C56.9399 140.8 51.2 135.06 51.2 128V63.9998C51.2001 56.9399 56.9399 51.2001 63.9998 51.2H128ZM57.6003 128C57.6003 131.54 60.4599 134.4 63.9998 134.4H76.8005V112H57.6003V128ZM119.95 105.55C112 105.55 105.55 112 105.55 119.95C105.55 127.9 112 134.35 119.95 134.35C127.9 134.35 134.35 127.9 134.35 119.95C134.35 112 127.9 105.55 119.95 105.55ZM57.6003 105.6H76.8005V83.2H57.6003V105.6ZM63.9998 57.6003C60.46 57.6005 57.6005 60.46 57.6003 63.9998V76.8005H134.4V63.9998C134.4 60.4599 131.54 57.6003 128 57.6003H63.9998Z" fill="white"/>
</g>
<g style="mix-blend-mode:overlay" opacity="0.5">
<g filter="url(#filter0_d_1_2)">
<path d="M119.95 99.1501C131.44 99.1501 140.75 108.46 140.75 119.95C140.75 124.54 139.26 128.78 136.75 132.22L149.41 144.89C150.66 146.14 150.66 148.17 149.41 149.42C148.16 150.67 146.13 150.67 144.88 149.42L132.22 136.75C128.78 139.26 124.54 140.75 119.95 140.75C119.645 140.75 119.342 140.742 119.04 140.729C119.065 140.73 119.091 140.732 119.116 140.733C119.037 140.73 118.958 140.727 118.88 140.723C118.793 140.719 118.707 140.713 118.621 140.708C118.648 140.709 118.674 140.71 118.701 140.712C107.793 140.066 99.1501 131.021 99.1501 119.95C99.1502 108.46 108.46 99.1502 119.95 99.1501ZM128 51.2C135.06 51.2 140.8 56.9399 140.801 63.9998V105.092C139.053 102.643 136.884 100.515 134.4 98.8142V83.2H115.2V94.7898C112.949 95.212 110.802 95.9286 108.801 96.8982V83.2H83.2V105.6H98.7458C97.4192 107.557 96.3562 109.707 95.6082 112H83.2V134.4H98.8142C100.515 136.884 102.643 139.053 105.092 140.801H63.9998C56.9399 140.8 51.2 135.06 51.2 128V63.9998C51.2001 56.9399 56.9399 51.2001 63.9998 51.2H128ZM57.6003 128C57.6003 131.54 60.4599 134.4 63.9998 134.4H76.8005V112H57.6003V128ZM119.95 105.55C112 105.55 105.55 112 105.55 119.95C105.55 127.9 112 134.35 119.95 134.35C127.9 134.35 134.35 127.9 134.35 119.95C134.35 112 127.9 105.55 119.95 105.55ZM57.6003 105.6H76.8005V83.2H57.6003V105.6ZM63.9998 57.6003C60.46 57.6005 57.6005 60.46 57.6003 63.9998V76.8005H134.4V63.9998C134.4 60.4599 131.54 57.6003 128 57.6003H63.9998Z" fill="white"/>
</g>
</g>
<path d="M119.95 99.1501C131.44 99.1501 140.75 108.46 140.75 119.95C140.75 124.54 139.26 128.78 136.75 132.22L149.41 144.89C150.66 146.14 150.66 148.17 149.41 149.42C148.16 150.67 146.13 150.67 144.88 149.42L132.22 136.75C128.78 139.26 124.54 140.75 119.95 140.75C119.645 140.75 119.342 140.742 119.04 140.729C119.065 140.73 119.091 140.732 119.116 140.733C119.037 140.73 118.958 140.727 118.88 140.723C118.793 140.719 118.707 140.713 118.621 140.708C118.648 140.709 118.674 140.71 118.701 140.712C107.793 140.066 99.1501 131.021 99.1501 119.95C99.1502 108.46 108.46 99.1502 119.95 99.1501ZM128 51.2C135.06 51.2 140.8 56.9399 140.801 63.9998V105.092C139.053 102.643 136.884 100.515 134.4 98.8142V83.2H115.2V94.7898C112.949 95.212 110.802 95.9286 108.801 96.8982V83.2H83.2V105.6H98.7458C97.4192 107.557 96.3562 109.707 95.6082 112H83.2V134.4H98.8142C100.515 136.884 102.643 139.053 105.092 140.801H63.9998C56.9399 140.8 51.2 135.06 51.2 128V63.9998C51.2001 56.9399 56.9399 51.2001 63.9998 51.2H128ZM57.6003 128C57.6003 131.54 60.4599 134.4 63.9998 134.4H76.8005V112H57.6003V128ZM119.95 105.55C112 105.55 105.55 112 105.55 119.95C105.55 127.9 112 134.35 119.95 134.35C127.9 134.35 134.35 127.9 134.35 119.95C134.35 112 127.9 105.55 119.95 105.55ZM57.6003 105.6H76.8005V83.2H57.6003V105.6ZM63.9998 57.6003C60.46 57.6005 57.6005 60.46 57.6003 63.9998V76.8005H134.4V63.9998C134.4 60.4599 131.54 57.6003 128 57.6003H63.9998Z" fill="white" fill-opacity="0.8"/>
<path d="M119.95 99.1501C131.44 99.1501 140.75 108.46 140.75 119.95C140.75 124.54 139.26 128.78 136.75 132.22L149.41 144.89C150.66 146.14 150.66 148.17 149.41 149.42C148.16 150.67 146.13 150.67 144.88 149.42L132.22 136.75C128.78 139.26 124.54 140.75 119.95 140.75C119.645 140.75 119.342 140.742 119.04 140.729C119.065 140.73 119.091 140.732 119.116 140.733C119.037 140.73 118.958 140.727 118.88 140.723C118.793 140.719 118.707 140.713 118.621 140.708C118.648 140.709 118.674 140.71 118.701 140.712C107.793 140.066 99.1501 131.021 99.1501 119.95C99.1502 108.46 108.46 99.1502 119.95 99.1501ZM128 51.2C135.06 51.2 140.8 56.9399 140.801 63.9998V105.092C139.053 102.643 136.884 100.515 134.4 98.8142V83.2H115.2V94.7898C112.949 95.212 110.802 95.9286 108.801 96.8982V83.2H83.2V105.6H98.7458C97.4192 107.557 96.3562 109.707 95.6082 112H83.2V134.4H98.8142C100.515 136.884 102.643 139.053 105.092 140.801H63.9998C56.9399 140.8 51.2 135.06 51.2 128V63.9998C51.2001 56.9399 56.9399 51.2001 63.9998 51.2H128ZM57.6003 128C57.6003 131.54 60.4599 134.4 63.9998 134.4H76.8005V112H57.6003V128ZM119.95 105.55C112 105.55 105.55 112 105.55 119.95C105.55 127.9 112 134.35 119.95 134.35C127.9 134.35 134.35 127.9 134.35 119.95C134.35 112 127.9 105.55 119.95 105.55ZM57.6003 105.6H76.8005V83.2H57.6003V105.6ZM63.9998 57.6003C60.46 57.6005 57.6005 60.46 57.6003 63.9998V76.8005H134.4V63.9998C134.4 60.4599 131.54 57.6003 128 57.6003H63.9998Z" fill="#1D1D1F"/>
<path d="M203.207 47.8438C203.128 47.0994 202.793 46.5199 202.202 46.1051C201.616 45.6903 200.855 45.483 199.918 45.483C199.259 45.483 198.693 45.5824 198.222 45.7812C197.75 45.9801 197.389 46.25 197.139 46.5909C196.889 46.9318 196.761 47.321 196.756 47.7585C196.756 48.1222 196.838 48.4375 197.003 48.7045C197.173 48.9716 197.403 49.1989 197.693 49.3864C197.983 49.5682 198.304 49.7216 198.656 49.8466C199.009 49.9716 199.364 50.0767 199.722 50.1619L201.358 50.571C202.017 50.7244 202.651 50.9318 203.259 51.1932C203.872 51.4545 204.42 51.7841 204.903 52.1818C205.392 52.5795 205.778 53.0597 206.062 53.6222C206.347 54.1847 206.489 54.8437 206.489 55.5994C206.489 56.6222 206.227 57.5227 205.705 58.3011C205.182 59.0739 204.426 59.679 203.438 60.1165C202.455 60.5483 201.264 60.7642 199.866 60.7642C198.509 60.7642 197.33 60.554 196.33 60.1335C195.335 59.7131 194.557 59.0994 193.994 58.2926C193.438 57.4858 193.136 56.5028 193.091 55.3438H196.202C196.247 55.9517 196.435 56.4574 196.764 56.8608C197.094 57.2642 197.523 57.5653 198.051 57.7642C198.585 57.9631 199.182 58.0625 199.841 58.0625C200.528 58.0625 201.131 57.9602 201.648 57.7557C202.17 57.5455 202.58 57.2557 202.875 56.8864C203.17 56.5114 203.321 56.0739 203.327 55.5739C203.321 55.1193 203.188 54.7443 202.926 54.4489C202.665 54.1477 202.298 53.8977 201.827 53.6989C201.361 53.4943 200.815 53.3125 200.19 53.1534L198.205 52.642C196.767 52.2727 195.631 51.7131 194.795 50.9631C193.966 50.2074 193.551 49.2045 193.551 47.9545C193.551 46.9261 193.83 46.0256 194.386 45.2528C194.949 44.4801 195.713 43.8807 196.679 43.4545C197.645 43.0227 198.739 42.8068 199.96 42.8068C201.199 42.8068 202.284 43.0227 203.216 43.4545C204.153 43.8807 204.889 44.4744 205.423 45.2358C205.957 45.9915 206.233 46.8608 206.25 47.8438H203.207ZM214.967 60.7557C213.654 60.7557 212.521 60.483 211.566 59.9375C210.617 59.3864 209.887 58.608 209.376 57.6023C208.864 56.5909 208.609 55.4006 208.609 54.0312C208.609 52.6847 208.864 51.5028 209.376 50.4858C209.893 49.4631 210.614 48.6676 211.54 48.0994C212.467 47.5256 213.555 47.2386 214.805 47.2386C215.612 47.2386 216.373 47.3693 217.089 47.6307C217.81 47.8864 218.447 48.2841 218.998 48.8239C219.555 49.3636 219.992 50.0511 220.31 50.8864C220.629 51.7159 220.788 52.7045 220.788 53.8523V54.7983H210.058V52.7188H217.83C217.825 52.1278 217.697 51.6023 217.447 51.142C217.197 50.6761 216.847 50.3097 216.398 50.0426C215.955 49.7756 215.438 49.642 214.847 49.642C214.217 49.642 213.663 49.7955 213.185 50.1023C212.708 50.4034 212.336 50.8011 212.069 51.2955C211.808 51.7841 211.674 52.321 211.668 52.9062V54.7216C211.668 55.483 211.808 56.1364 212.086 56.6818C212.364 57.2216 212.754 57.6364 213.254 57.9261C213.754 58.2102 214.339 58.3523 215.009 58.3523C215.458 58.3523 215.864 58.2898 216.228 58.1648C216.592 58.0341 216.907 57.8438 217.174 57.5938C217.441 57.3438 217.643 57.0341 217.779 56.6648L220.66 56.9886C220.478 57.75 220.131 58.4148 219.62 58.983C219.114 59.5455 218.467 59.983 217.677 60.2955C216.887 60.6023 215.984 60.7557 214.967 60.7557ZM223.398 60.5V47.4091H226.389V49.5909H226.526C226.764 48.8352 227.173 48.2528 227.753 47.8438C228.338 47.429 229.006 47.2216 229.756 47.2216C229.926 47.2216 230.116 47.2301 230.327 47.2472C230.543 47.2585 230.722 47.2784 230.864 47.3068V50.1449C230.733 50.0994 230.526 50.0597 230.241 50.0256C229.963 49.9858 229.693 49.9659 229.432 49.9659C228.869 49.9659 228.364 50.0881 227.915 50.3324C227.472 50.571 227.122 50.9034 226.866 51.3295C226.611 51.7557 226.483 52.2472 226.483 52.804V60.5H223.398ZM245.005 47.4091L240.343 60.5H236.934L232.272 47.4091H235.562L238.57 57.1335H238.707L241.724 47.4091H245.005ZM247.14 60.5V47.4091H250.225V60.5H247.14ZM248.691 45.5511C248.202 45.5511 247.782 45.3892 247.43 45.0653C247.077 44.7358 246.901 44.3409 246.901 43.8807C246.901 43.4148 247.077 43.0199 247.43 42.696C247.782 42.3665 248.202 42.2017 248.691 42.2017C249.185 42.2017 249.606 42.3665 249.952 42.696C250.305 43.0199 250.481 43.4148 250.481 43.8807C250.481 44.3409 250.305 44.7358 249.952 45.0653C249.606 45.3892 249.185 45.5511 248.691 45.5511ZM259.108 60.7557C257.801 60.7557 256.679 60.4688 255.741 59.8949C254.81 59.321 254.091 58.5284 253.585 57.517C253.085 56.5 252.835 55.3295 252.835 54.0057C252.835 52.6761 253.091 51.5028 253.602 50.4858C254.114 49.4631 254.835 48.6676 255.767 48.0994C256.705 47.5256 257.813 47.2386 259.091 47.2386C260.153 47.2386 261.094 47.4347 261.912 47.8267C262.736 48.2131 263.392 48.7614 263.881 49.4716C264.369 50.1761 264.648 51 264.716 51.9432H261.767C261.648 51.3125 261.364 50.7869 260.915 50.3665C260.472 49.9403 259.878 49.7273 259.134 49.7273C258.503 49.7273 257.949 49.8977 257.472 50.2386C256.994 50.5739 256.622 51.0568 256.355 51.6875C256.094 52.3182 255.963 53.0739 255.963 53.9545C255.963 54.8466 256.094 55.6136 256.355 56.2557C256.616 56.892 256.983 57.3835 257.455 57.7301C257.932 58.071 258.491 58.2415 259.134 58.2415C259.588 58.2415 259.994 58.1562 260.352 57.9858C260.716 57.8097 261.02 57.5568 261.264 57.2273C261.509 56.8977 261.676 56.4972 261.767 56.0256H264.716C264.642 56.9517 264.369 57.7727 263.898 58.4886C263.426 59.1989 262.784 59.7557 261.972 60.1591C261.159 60.5568 260.205 60.7557 259.108 60.7557ZM273.045 60.7557C271.732 60.7557 270.599 60.483 269.644 59.9375C268.695 59.3864 267.965 58.608 267.454 57.6023C266.942 56.5909 266.687 55.4006 266.687 54.0312C266.687 52.6847 266.942 51.5028 267.454 50.4858C267.971 49.4631 268.692 48.6676 269.619 48.0994C270.545 47.5256 271.633 47.2386 272.883 47.2386C273.69 47.2386 274.451 47.3693 275.167 47.6307C275.888 47.8864 276.525 48.2841 277.076 48.8239C277.633 49.3636 278.07 50.0511 278.388 50.8864C278.707 51.7159 278.866 52.7045 278.866 53.8523V54.7983H268.136V52.7188H275.908C275.903 52.1278 275.775 51.6023 275.525 51.142C275.275 50.6761 274.925 50.3097 274.477 50.0426C274.033 49.7756 273.516 49.642 272.925 49.642C272.295 49.642 271.741 49.7955 271.263 50.1023C270.786 50.4034 270.414 50.8011 270.147 51.2955C269.886 51.7841 269.752 52.321 269.746 52.9062V54.7216C269.746 55.483 269.886 56.1364 270.164 56.6818C270.442 57.2216 270.832 57.6364 271.332 57.9261C271.832 58.2102 272.417 58.3523 273.087 58.3523C273.536 58.3523 273.942 58.2898 274.306 58.1648C274.67 58.0341 274.985 57.8438 275.252 57.5938C275.519 57.3438 275.721 57.0341 275.857 56.6648L278.738 56.9886C278.556 57.75 278.21 58.4148 277.698 58.983C277.192 59.5455 276.545 59.983 275.755 60.2955C274.965 60.6023 274.062 60.7557 273.045 60.7557ZM295.956 43.0455V60.5H293.143L284.919 48.6108H284.774V60.5H281.612V43.0455H284.442L292.658 54.9432H292.811V43.0455H295.956ZM304.975 60.7557C303.697 60.7557 302.589 60.4744 301.651 59.9119C300.714 59.3494 299.987 58.5625 299.469 57.5511C298.958 56.5398 298.702 55.358 298.702 54.0057C298.702 52.6534 298.958 51.4687 299.469 50.4517C299.987 49.4347 300.714 48.6449 301.651 48.0824C302.589 47.5199 303.697 47.2386 304.975 47.2386C306.254 47.2386 307.362 47.5199 308.299 48.0824C309.237 48.6449 309.961 49.4347 310.472 50.4517C310.989 51.4687 311.248 52.6534 311.248 54.0057C311.248 55.358 310.989 56.5398 310.472 57.5511C309.961 58.5625 309.237 59.3494 308.299 59.9119C307.362 60.4744 306.254 60.7557 304.975 60.7557ZM304.992 58.2841C305.685 58.2841 306.265 58.0937 306.731 57.7131C307.197 57.3267 307.543 56.8097 307.771 56.1619C308.004 55.5142 308.12 54.7926 308.12 53.9972C308.12 53.196 308.004 52.4716 307.771 51.8239C307.543 51.1705 307.197 50.6506 306.731 50.2642C306.265 49.8778 305.685 49.6847 304.992 49.6847C304.282 49.6847 303.691 49.8778 303.219 50.2642C302.754 50.6506 302.404 51.1705 302.171 51.8239C301.944 52.4716 301.83 53.196 301.83 53.9972C301.83 54.7926 301.944 55.5142 302.171 56.1619C302.404 56.8097 302.754 57.3267 303.219 57.7131C303.691 58.0937 304.282 58.2841 304.992 58.2841ZM316.193 60.5L312.494 47.4091H315.639L317.94 56.6136H318.06L320.412 47.4091H323.523L325.875 56.5625H326.003L328.27 47.4091H331.423L327.716 60.5H324.503L322.048 51.6534H321.869L319.415 60.5H316.193Z" fill="white"/>
<path d="M203.207 47.8438C203.128 47.0994 202.793 46.5199 202.202 46.1051C201.616 45.6903 200.855 45.483 199.918 45.483C199.259 45.483 198.693 45.5824 198.222 45.7812C197.75 45.9801 197.389 46.25 197.139 46.5909C196.889 46.9318 196.761 47.321 196.756 47.7585C196.756 48.1222 196.838 48.4375 197.003 48.7045C197.173 48.9716 197.403 49.1989 197.693 49.3864C197.983 49.5682 198.304 49.7216 198.656 49.8466C199.009 49.9716 199.364 50.0767 199.722 50.1619L201.358 50.571C202.017 50.7244 202.651 50.9318 203.259 51.1932C203.872 51.4545 204.42 51.7841 204.903 52.1818C205.392 52.5795 205.778 53.0597 206.062 53.6222C206.347 54.1847 206.489 54.8437 206.489 55.5994C206.489 56.6222 206.227 57.5227 205.705 58.3011C205.182 59.0739 204.426 59.679 203.438 60.1165C202.455 60.5483 201.264 60.7642 199.866 60.7642C198.509 60.7642 197.33 60.554 196.33 60.1335C195.335 59.7131 194.557 59.0994 193.994 58.2926C193.438 57.4858 193.136 56.5028 193.091 55.3438H196.202C196.247 55.9517 196.435 56.4574 196.764 56.8608C197.094 57.2642 197.523 57.5653 198.051 57.7642C198.585 57.9631 199.182 58.0625 199.841 58.0625C200.528 58.0625 201.131 57.9602 201.648 57.7557C202.17 57.5455 202.58 57.2557 202.875 56.8864C203.17 56.5114 203.321 56.0739 203.327 55.5739C203.321 55.1193 203.188 54.7443 202.926 54.4489C202.665 54.1477 202.298 53.8977 201.827 53.6989C201.361 53.4943 200.815 53.3125 200.19 53.1534L198.205 52.642C196.767 52.2727 195.631 51.7131 194.795 50.9631C193.966 50.2074 193.551 49.2045 193.551 47.9545C193.551 46.9261 193.83 46.0256 194.386 45.2528C194.949 44.4801 195.713 43.8807 196.679 43.4545C197.645 43.0227 198.739 42.8068 199.96 42.8068C201.199 42.8068 202.284 43.0227 203.216 43.4545C204.153 43.8807 204.889 44.4744 205.423 45.2358C205.957 45.9915 206.233 46.8608 206.25 47.8438H203.207ZM214.967 60.7557C213.654 60.7557 212.521 60.483 211.566 59.9375C210.617 59.3864 209.887 58.608 209.376 57.6023C208.864 56.5909 208.609 55.4006 208.609 54.0312C208.609 52.6847 208.864 51.5028 209.376 50.4858C209.893 49.4631 210.614 48.6676 211.54 48.0994C212.467 47.5256 213.555 47.2386 214.805 47.2386C215.612 47.2386 216.373 47.3693 217.089 47.6307C217.81 47.8864 218.447 48.2841 218.998 48.8239C219.555 49.3636 219.992 50.0511 220.31 50.8864C220.629 51.7159 220.788 52.7045 220.788 53.8523V54.7983H210.058V52.7188H217.83C217.825 52.1278 217.697 51.6023 217.447 51.142C217.197 50.6761 216.847 50.3097 216.398 50.0426C215.955 49.7756 215.438 49.642 214.847 49.642C214.217 49.642 213.663 49.7955 213.185 50.1023C212.708 50.4034 212.336 50.8011 212.069 51.2955C211.808 51.7841 211.674 52.321 211.668 52.9062V54.7216C211.668 55.483 211.808 56.1364 212.086 56.6818C212.364 57.2216 212.754 57.6364 213.254 57.9261C213.754 58.2102 214.339 58.3523 215.009 58.3523C215.458 58.3523 215.864 58.2898 216.228 58.1648C216.592 58.0341 216.907 57.8438 217.174 57.5938C217.441 57.3438 217.643 57.0341 217.779 56.6648L220.66 56.9886C220.478 57.75 220.131 58.4148 219.62 58.983C219.114 59.5455 218.467 59.983 217.677 60.2955C216.887 60.6023 215.984 60.7557 214.967 60.7557ZM223.398 60.5V47.4091H226.389V49.5909H226.526C226.764 48.8352 227.173 48.2528 227.753 47.8438C228.338 47.429 229.006 47.2216 229.756 47.2216C229.926 47.2216 230.116 47.2301 230.327 47.2472C230.543 47.2585 230.722 47.2784 230.864 47.3068V50.1449C230.733 50.0994 230.526 50.0597 230.241 50.0256C229.963 49.9858 229.693 49.9659 229.432 49.9659C228.869 49.9659 228.364 50.0881 227.915 50.3324C227.472 50.571 227.122 50.9034 226.866 51.3295C226.611 51.7557 226.483 52.2472 226.483 52.804V60.5H223.398ZM245.005 47.4091L240.343 60.5H236.934L232.272 47.4091H235.562L238.57 57.1335H238.707L241.724 47.4091H245.005ZM247.14 60.5V47.4091H250.225V60.5H247.14ZM248.691 45.5511C248.202 45.5511 247.782 45.3892 247.43 45.0653C247.077 44.7358 246.901 44.3409 246.901 43.8807C246.901 43.4148 247.077 43.0199 247.43 42.696C247.782 42.3665 248.202 42.2017 248.691 42.2017C249.185 42.2017 249.606 42.3665 249.952 42.696C250.305 43.0199 250.481 43.4148 250.481 43.8807C250.481 44.3409 250.305 44.7358 249.952 45.0653C249.606 45.3892 249.185 45.5511 248.691 45.5511ZM259.108 60.7557C257.801 60.7557 256.679 60.4688 255.741 59.8949C254.81 59.321 254.091 58.5284 253.585 57.517C253.085 56.5 252.835 55.3295 252.835 54.0057C252.835 52.6761 253.091 51.5028 253.602 50.4858C254.114 49.4631 254.835 48.6676 255.767 48.0994C256.705 47.5256 257.813 47.2386 259.091 47.2386C260.153 47.2386 261.094 47.4347 261.912 47.8267C262.736 48.2131 263.392 48.7614 263.881 49.4716C264.369 50.1761 264.648 51 264.716 51.9432H261.767C261.648 51.3125 261.364 50.7869 260.915 50.3665C260.472 49.9403 259.878 49.7273 259.134 49.7273C258.503 49.7273 257.949 49.8977 257.472 50.2386C256.994 50.5739 256.622 51.0568 256.355 51.6875C256.094 52.3182 255.963 53.0739 255.963 53.9545C255.963 54.8466 256.094 55.6136 256.355 56.2557C256.616 56.892 256.983 57.3835 257.455 57.7301C257.932 58.071 258.491 58.2415 259.134 58.2415C259.588 58.2415 259.994 58.1562 260.352 57.9858C260.716 57.8097 261.02 57.5568 261.264 57.2273C261.509 56.8977 261.676 56.4972 261.767 56.0256H264.716C264.642 56.9517 264.369 57.7727 263.898 58.4886C263.426 59.1989 262.784 59.7557 261.972 60.1591C261.159 60.5568 260.205 60.7557 259.108 60.7557ZM273.045 60.7557C271.732 60.7557 270.599 60.483 269.644 59.9375C268.695 59.3864 267.965 58.608 267.454 57.6023C266.942 56.5909 266.687 55.4006 266.687 54.0312C266.687 52.6847 266.942 51.5028 267.454 50.4858C267.971 49.4631 268.692 48.6676 269.619 48.0994C270.545 47.5256 271.633 47.2386 272.883 47.2386C273.69 47.2386 274.451 47.3693 275.167 47.6307C275.888 47.8864 276.525 48.2841 277.076 48.8239C277.633 49.3636 278.07 50.0511 278.388 50.8864C278.707 51.7159 278.866 52.7045 278.866 53.8523V54.7983H268.136V52.7188H275.908C275.903 52.1278 275.775 51.6023 275.525 51.142C275.275 50.6761 274.925 50.3097 274.477 50.0426C274.033 49.7756 273.516 49.642 272.925 49.642C272.295 49.642 271.741 49.7955 271.263 50.1023C270.786 50.4034 270.414 50.8011 270.147 51.2955C269.886 51.7841 269.752 52.321 269.746 52.9062V54.7216C269.746 55.483 269.886 56.1364 270.164 56.6818C270.442 57.2216 270.832 57.6364 271.332 57.9261C271.832 58.2102 272.417 58.3523 273.087 58.3523C273.536 58.3523 273.942 58.2898 274.306 58.1648C274.67 58.0341 274.985 57.8438 275.252 57.5938C275.519 57.3438 275.721 57.0341 275.857 56.6648L278.738 56.9886C278.556 57.75 278.21 58.4148 277.698 58.983C277.192 59.5455 276.545 59.983 275.755 60.2955C274.965 60.6023 274.062 60.7557 273.045 60.7557ZM295.956 43.0455V60.5H293.143L284.919 48.6108H284.774V60.5H281.612V43.0455H284.442L292.658 54.9432H292.811V43.0455H295.956ZM304.975 60.7557C303.697 60.7557 302.589 60.4744 301.651 59.9119C300.714 59.3494 299.987 58.5625 299.469 57.5511C298.958 56.5398 298.702 55.358 298.702 54.0057C298.702 52.6534 298.958 51.4687 299.469 50.4517C299.987 49.4347 300.714 48.6449 301.651 48.0824C302.589 47.5199 303.697 47.2386 304.975 47.2386C306.254 47.2386 307.362 47.5199 308.299 48.0824C309.237 48.6449 309.961 49.4347 310.472 50.4517C310.989 51.4687 311.248 52.6534 311.248 54.0057C311.248 55.358 310.989 56.5398 310.472 57.5511C309.961 58.5625 309.237 59.3494 308.299 59.9119C307.362 60.4744 306.254 60.7557 304.975 60.7557ZM304.992 58.2841C305.685 58.2841 306.265 58.0937 306.731 57.7131C307.197 57.3267 307.543 56.8097 307.771 56.1619C308.004 55.5142 308.12 54.7926 308.12 53.9972C308.12 53.196 308.004 52.4716 307.771 51.8239C307.543 51.1705 307.197 50.6506 306.731 50.2642C306.265 49.8778 305.685 49.6847 304.992 49.6847C304.282 49.6847 303.691 49.8778 303.219 50.2642C302.754 50.6506 302.404 51.1705 302.171 51.8239C301.944 52.4716 301.83 53.196 301.83 53.9972C301.83 54.7926 301.944 55.5142 302.171 56.1619C302.404 56.8097 302.754 57.3267 303.219 57.7131C303.691 58.0937 304.282 58.2841 304.992 58.2841ZM316.193 60.5L312.494 47.4091H315.639L317.94 56.6136H318.06L320.412 47.4091H323.523L325.875 56.5625H326.003L328.27 47.4091H331.423L327.716 60.5H324.503L322.048 51.6534H321.869L319.415 60.5H316.193Z" fill="black" fill-opacity="0.03"/>
<path d="M208.128 105.172C204 105.172 200.72 104.02 198.288 101.716C195.856 99.38 194.64 96.02 194.64 91.636V83.764C194.64 79.38 195.856 76.036 198.288 73.732C200.72 71.396 204 70.228 208.128 70.228C212.256 70.228 215.536 71.396 217.968 73.732C220.432 76.036 221.664 79.38 221.664 83.764V91.636C221.664 96.02 220.432 99.38 217.968 101.716C215.536 104.02 212.256 105.172 208.128 105.172ZM208.128 100.516C210.784 100.516 212.832 99.748 214.272 98.212C215.712 96.644 216.432 94.516 216.432 91.828V83.572C216.432 80.884 215.712 78.772 214.272 77.236C212.832 75.668 210.784 74.884 208.128 74.884C205.536 74.884 203.504 75.668 202.032 77.236C200.56 78.772 199.824 80.884 199.824 83.572V91.828C199.824 94.516 200.56 96.644 202.032 98.212C203.504 99.748 205.536 100.516 208.128 100.516ZM210.192 112.708C208.816 112.708 207.696 112.276 206.832 111.412C206 110.58 205.584 109.444 205.584 108.004V104.5H210.672V107.14C210.672 108.1 211.12 108.58 212.016 108.58H214.992V112.708H210.192ZM237.017 104.932C235.225 104.932 233.625 104.532 232.217 103.732C230.809 102.932 229.705 101.796 228.905 100.324C228.105 98.852 227.705 97.092 227.705 95.044V80.836H232.649V94.708C232.649 96.756 233.161 98.276 234.185 99.268C235.209 100.228 236.633 100.708 238.457 100.708C240.473 100.708 242.089 100.036 243.305 98.692C244.553 97.316 245.177 95.348 245.177 92.788V80.836H250.121V104.5H245.273V100.948H244.505C244.057 101.908 243.257 102.82 242.105 103.684C240.953 104.516 239.257 104.932 237.017 104.932ZM268.277 105.172C265.877 105.172 263.781 104.676 261.989 103.684C260.197 102.66 258.789 101.236 257.765 99.412C256.773 97.556 256.277 95.412 256.277 92.98V92.404C256.277 89.94 256.773 87.796 257.765 85.972C258.757 84.116 260.133 82.692 261.893 81.7C263.685 80.676 265.749 80.164 268.085 80.164C270.357 80.164 272.341 80.676 274.037 81.7C275.765 82.692 277.109 84.084 278.069 85.876C279.029 87.668 279.509 89.764 279.509 92.164V94.036H261.317C261.381 96.116 262.069 97.78 263.381 99.028C264.725 100.244 266.389 100.852 268.373 100.852C270.229 100.852 271.621 100.436 272.549 99.604C273.509 98.772 274.245 97.812 274.757 96.724L278.837 98.836C278.389 99.732 277.733 100.676 276.869 101.668C276.037 102.66 274.933 103.492 273.557 104.164C272.181 104.836 270.421 105.172 268.277 105.172ZM261.365 90.244H274.469C274.341 88.452 273.701 87.06 272.549 86.068C271.397 85.044 269.893 84.532 268.037 84.532C266.181 84.532 264.661 85.044 263.477 86.068C262.325 87.06 261.621 88.452 261.365 90.244ZM285.461 104.5V80.836H290.309V83.62H291.077C291.461 82.628 292.069 81.908 292.901 81.46C293.765 80.98 294.821 80.74 296.069 80.74H298.901V85.204H295.877C294.277 85.204 292.965 85.652 291.941 86.548C290.917 87.412 290.405 88.756 290.405 90.58V104.5H285.461ZM306.759 114.1V109.78H319.959C320.855 109.78 321.303 109.3 321.303 108.34V101.044H320.535C320.247 101.684 319.799 102.308 319.191 102.916C318.615 103.492 317.831 103.972 316.839 104.356C315.847 104.74 314.599 104.932 313.095 104.932C311.303 104.932 309.703 104.532 308.295 103.732C306.887 102.932 305.783 101.796 304.983 100.324C304.183 98.852 303.783 97.108 303.783 95.092V80.836H308.727V94.708C308.727 96.756 309.239 98.276 310.263 99.268C311.287 100.228 312.711 100.708 314.535 100.708C316.551 100.708 318.167 100.036 319.383 98.692C320.631 97.348 321.255 95.396 321.255 92.836V80.836H326.199V109.348C326.199 110.788 325.767 111.94 324.903 112.804C324.071 113.668 322.919 114.1 321.447 114.1H306.759ZM357.022 105.172C354.494 105.172 352.254 104.724 350.302 103.828C348.35 102.932 346.814 101.62 345.694 99.892C344.606 98.132 344.062 96.004 344.062 93.508V92.308H349.198V93.508C349.198 95.876 349.902 97.652 351.31 98.836C352.75 100.02 354.654 100.612 357.022 100.612C359.422 100.612 361.23 100.116 362.446 99.124C363.662 98.1 364.27 96.788 364.27 95.188C364.27 94.132 363.982 93.268 363.406 92.596C362.83 91.924 362.014 91.396 360.958 91.012C359.902 90.596 358.638 90.212 357.166 89.86L355.39 89.428C353.246 88.916 351.374 88.292 349.774 87.556C348.206 86.788 346.99 85.78 346.126 84.532C345.262 83.284 344.83 81.684 344.83 79.732C344.83 77.748 345.31 76.052 346.27 74.644C347.262 73.236 348.622 72.148 350.35 71.38C352.078 70.612 354.11 70.228 356.446 70.228C358.782 70.228 360.862 70.628 362.686 71.428C364.542 72.228 365.998 73.412 367.054 74.98C368.11 76.548 368.638 78.516 368.638 80.884V82.612H363.502V80.884C363.502 79.444 363.198 78.276 362.59 77.38C362.014 76.484 361.198 75.828 360.142 75.412C359.086 74.996 357.854 74.788 356.446 74.788C354.398 74.788 352.798 75.22 351.646 76.084C350.526 76.916 349.966 78.084 349.966 79.588C349.966 80.612 350.206 81.46 350.686 82.132C351.198 82.772 351.934 83.3 352.894 83.716C353.854 84.132 355.054 84.5 356.494 84.82L358.27 85.252C360.446 85.732 362.366 86.356 364.03 87.124C365.694 87.86 367.006 88.868 367.966 90.148C368.926 91.428 369.406 93.076 369.406 95.092C369.406 97.108 368.894 98.868 367.87 100.372C366.878 101.876 365.454 103.06 363.598 103.924C361.742 104.756 359.55 105.172 357.022 105.172ZM374.992 104.5V70.9H379.936V90.052H380.704L390.016 80.836H396.592L384.64 92.308L396.976 104.5H390.448L380.704 94.66H379.936V104.5H374.992ZM401.429 104.5V80.836H406.373V104.5H401.429ZM403.925 77.62C402.965 77.62 402.149 77.316 401.477 76.708C400.837 76.068 400.517 75.252 400.517 74.26C400.517 73.268 400.837 72.468 401.477 71.86C402.149 71.22 402.965 70.9 403.925 70.9C404.917 70.9 405.733 71.22 406.373 71.86C407.013 72.468 407.333 73.268 407.333 74.26C407.333 75.252 407.013 76.068 406.373 76.708C405.733 77.316 404.917 77.62 403.925 77.62ZM413.711 104.5V70.9H418.655V104.5H413.711ZM425.992 104.5V70.9H430.936V104.5H425.992Z" fill="url(#paint2_linear_1_2)"/>
<rect opacity="0.2" x="192" y="123.5" width="259" height="1" fill="white"/>
<path opacity="0.7" d="M197.636 146.864H199.182L200.477 148.568L200.818 149.023L202.75 151.591H201.205L199.932 149.886L199.614 149.455L197.636 146.864ZM203.227 144.682C203.227 145.909 203.006 146.97 202.562 147.864C202.119 148.758 201.511 149.447 200.739 149.932C199.966 150.417 199.083 150.659 198.091 150.659C197.098 150.659 196.216 150.417 195.443 149.932C194.67 149.447 194.063 148.758 193.619 147.864C193.176 146.97 192.955 145.909 192.955 144.682C192.955 143.455 193.176 142.394 193.619 141.5C194.063 140.606 194.67 139.917 195.443 139.432C196.216 138.947 197.098 138.705 198.091 138.705C199.083 138.705 199.966 138.947 200.739 139.432C201.511 139.917 202.119 140.606 202.562 141.5C203.006 142.394 203.227 143.455 203.227 144.682ZM201.864 144.682C201.864 143.674 201.695 142.824 201.358 142.131C201.025 141.438 200.572 140.913 200 140.557C199.432 140.201 198.795 140.023 198.091 140.023C197.386 140.023 196.748 140.201 196.176 140.557C195.608 140.913 195.155 141.438 194.818 142.131C194.485 142.824 194.318 143.674 194.318 144.682C194.318 145.689 194.485 146.54 194.818 147.233C195.155 147.926 195.608 148.451 196.176 148.807C196.748 149.163 197.386 149.341 198.091 149.341C198.795 149.341 199.432 149.163 200 148.807C200.572 148.451 201.025 147.926 201.358 147.233C201.695 146.54 201.864 145.689 201.864 144.682ZM210.435 146.932V141.773H211.776V150.5H210.435V149.023H210.344C210.139 149.466 209.821 149.843 209.389 150.153C208.958 150.46 208.412 150.614 207.753 150.614C207.208 150.614 206.723 150.494 206.298 150.256C205.874 150.013 205.541 149.65 205.298 149.165C205.056 148.676 204.935 148.061 204.935 147.318V141.773H206.276V147.227C206.276 147.864 206.454 148.371 206.81 148.75C207.17 149.129 207.628 149.318 208.185 149.318C208.518 149.318 208.857 149.233 209.202 149.062C209.55 148.892 209.842 148.631 210.077 148.278C210.315 147.926 210.435 147.477 210.435 146.932ZM217.411 150.682C216.57 150.682 215.844 150.496 215.235 150.125C214.629 149.75 214.161 149.227 213.831 148.557C213.505 147.883 213.343 147.098 213.343 146.205C213.343 145.311 213.505 144.523 213.831 143.841C214.161 143.155 214.619 142.621 215.206 142.239C215.797 141.852 216.486 141.659 217.274 141.659C217.729 141.659 218.178 141.735 218.621 141.886C219.064 142.038 219.468 142.284 219.831 142.625C220.195 142.962 220.485 143.409 220.701 143.966C220.916 144.523 221.024 145.208 221.024 146.023V146.591H214.297V145.432H219.661C219.661 144.939 219.562 144.5 219.365 144.114C219.172 143.727 218.896 143.422 218.536 143.199C218.18 142.975 217.759 142.864 217.274 142.864C216.74 142.864 216.278 142.996 215.888 143.261C215.502 143.523 215.204 143.864 214.996 144.284C214.788 144.705 214.683 145.155 214.683 145.636V146.409C214.683 147.068 214.797 147.627 215.024 148.085C215.255 148.54 215.576 148.886 215.985 149.125C216.394 149.36 216.869 149.477 217.411 149.477C217.763 149.477 218.081 149.428 218.365 149.33C218.653 149.227 218.901 149.076 219.11 148.875C219.318 148.67 219.479 148.417 219.593 148.114L220.888 148.477C220.752 148.917 220.522 149.303 220.201 149.636C219.879 149.966 219.481 150.223 219.007 150.409C218.534 150.591 218.002 150.682 217.411 150.682ZM222.584 150.5V141.773H223.88V143.091H223.971C224.13 142.659 224.417 142.309 224.834 142.04C225.251 141.771 225.721 141.636 226.243 141.636C226.342 141.636 226.465 141.638 226.613 141.642C226.76 141.646 226.872 141.652 226.948 141.659V143.023C226.902 143.011 226.798 142.994 226.635 142.972C226.476 142.945 226.308 142.932 226.13 142.932C225.705 142.932 225.327 143.021 224.993 143.199C224.664 143.373 224.402 143.616 224.209 143.926C224.02 144.233 223.925 144.583 223.925 144.977V150.5H222.584ZM229.187 153.773C228.959 153.773 228.757 153.754 228.579 153.716C228.401 153.682 228.277 153.648 228.209 153.614L228.55 152.432C228.876 152.515 229.164 152.545 229.414 152.523C229.664 152.5 229.885 152.388 230.079 152.188C230.276 151.991 230.455 151.67 230.618 151.227L230.868 150.545L227.641 141.773H229.096L231.505 148.727H231.596L234.005 141.773H235.459L231.755 151.773C231.588 152.223 231.382 152.597 231.135 152.892C230.889 153.191 230.603 153.413 230.277 153.557C229.955 153.701 229.592 153.773 229.187 153.773ZM243.337 150.705C242.784 150.705 242.282 150.6 241.832 150.392C241.381 150.18 241.023 149.875 240.758 149.477C240.493 149.076 240.36 148.591 240.36 148.023C240.36 147.523 240.459 147.117 240.656 146.807C240.852 146.492 241.116 146.246 241.445 146.068C241.775 145.89 242.138 145.758 242.536 145.67C242.938 145.58 243.341 145.508 243.746 145.455C244.277 145.386 244.707 145.335 245.036 145.301C245.37 145.263 245.612 145.201 245.763 145.114C245.919 145.027 245.996 144.875 245.996 144.659V144.614C245.996 144.053 245.843 143.617 245.536 143.307C245.233 142.996 244.773 142.841 244.156 142.841C243.515 142.841 243.013 142.981 242.65 143.261C242.286 143.542 242.031 143.841 241.883 144.159L240.61 143.705C240.837 143.174 241.14 142.761 241.519 142.466C241.902 142.167 242.318 141.958 242.769 141.841C243.224 141.72 243.671 141.659 244.11 141.659C244.39 141.659 244.712 141.693 245.076 141.761C245.443 141.826 245.798 141.96 246.138 142.165C246.483 142.369 246.769 142.678 246.996 143.091C247.224 143.504 247.337 144.057 247.337 144.75V150.5H245.996V149.318H245.928C245.837 149.508 245.686 149.71 245.474 149.926C245.262 150.142 244.979 150.326 244.627 150.477C244.275 150.629 243.845 150.705 243.337 150.705ZM243.542 149.5C244.072 149.5 244.519 149.396 244.883 149.188C245.25 148.979 245.527 148.71 245.712 148.381C245.902 148.051 245.996 147.705 245.996 147.341V146.114C245.94 146.182 245.815 146.244 245.621 146.301C245.432 146.354 245.212 146.402 244.962 146.443C244.716 146.481 244.476 146.515 244.241 146.545C244.01 146.572 243.822 146.595 243.678 146.614C243.33 146.659 243.004 146.733 242.701 146.835C242.402 146.934 242.159 147.083 241.974 147.284C241.792 147.481 241.701 147.75 241.701 148.091C241.701 148.557 241.873 148.909 242.218 149.148C242.566 149.383 243.008 149.5 243.542 149.5ZM250.646 145.25V150.5H249.305V141.773H250.6V143.136H250.714C250.918 142.693 251.229 142.337 251.646 142.068C252.062 141.795 252.6 141.659 253.259 141.659C253.85 141.659 254.367 141.78 254.81 142.023C255.254 142.261 255.598 142.625 255.845 143.114C256.091 143.598 256.214 144.212 256.214 144.955V150.5H254.873V145.045C254.873 144.36 254.695 143.826 254.339 143.443C253.983 143.057 253.494 142.864 252.873 142.864C252.445 142.864 252.062 142.956 251.725 143.142C251.392 143.328 251.129 143.598 250.935 143.955C250.742 144.311 250.646 144.742 250.646 145.25ZM258.735 153.773C258.508 153.773 258.305 153.754 258.127 153.716C257.949 153.682 257.826 153.648 257.758 153.614L258.099 152.432C258.425 152.515 258.713 152.545 258.963 152.523C259.213 152.5 259.434 152.388 259.627 152.188C259.824 151.991 260.004 151.67 260.167 151.227L260.417 150.545L257.19 141.773H258.644L261.053 148.727H261.144L263.553 141.773H265.008L261.303 151.773C261.137 152.223 260.93 152.597 260.684 152.892C260.438 153.191 260.152 153.413 259.826 153.557C259.504 153.701 259.141 153.773 258.735 153.773ZM276.863 141.773C276.795 141.197 276.519 140.75 276.034 140.432C275.549 140.114 274.954 139.955 274.25 139.955C273.735 139.955 273.284 140.038 272.897 140.205C272.515 140.371 272.216 140.6 272 140.892C271.788 141.184 271.682 141.515 271.682 141.886C271.682 142.197 271.755 142.464 271.903 142.688C272.055 142.907 272.248 143.091 272.483 143.239C272.718 143.383 272.964 143.502 273.221 143.597C273.479 143.687 273.716 143.761 273.932 143.818L275.113 144.136C275.416 144.216 275.754 144.326 276.125 144.466C276.5 144.606 276.858 144.797 277.199 145.04C277.543 145.278 277.827 145.585 278.051 145.96C278.274 146.335 278.386 146.795 278.386 147.341C278.386 147.97 278.221 148.538 277.892 149.045C277.566 149.553 277.089 149.956 276.46 150.256C275.835 150.555 275.075 150.705 274.182 150.705C273.348 150.705 272.627 150.57 272.017 150.301C271.411 150.032 270.933 149.657 270.585 149.176C270.24 148.695 270.045 148.136 270 147.5H271.454C271.492 147.939 271.64 148.303 271.897 148.591C272.159 148.875 272.488 149.087 272.886 149.227C273.288 149.364 273.719 149.432 274.182 149.432C274.719 149.432 275.202 149.345 275.63 149.17C276.058 148.992 276.397 148.746 276.647 148.432C276.897 148.114 277.022 147.742 277.022 147.318C277.022 146.932 276.914 146.617 276.699 146.375C276.483 146.133 276.199 145.936 275.846 145.784C275.494 145.633 275.113 145.5 274.704 145.386L273.272 144.977C272.363 144.716 271.644 144.343 271.113 143.858C270.583 143.373 270.318 142.739 270.318 141.955C270.318 141.303 270.494 140.735 270.846 140.25C271.202 139.761 271.68 139.383 272.278 139.114C272.88 138.841 273.553 138.705 274.295 138.705C275.045 138.705 275.712 138.839 276.295 139.108C276.879 139.373 277.341 139.737 277.682 140.199C278.026 140.661 278.208 141.186 278.227 141.773H276.863ZM283.7 150.682C282.859 150.682 282.134 150.496 281.524 150.125C280.918 149.75 280.45 149.227 280.121 148.557C279.795 147.883 279.632 147.098 279.632 146.205C279.632 145.311 279.795 144.523 280.121 143.841C280.45 143.155 280.908 142.621 281.496 142.239C282.086 141.852 282.776 141.659 283.564 141.659C284.018 141.659 284.467 141.735 284.91 141.886C285.354 142.038 285.757 142.284 286.121 142.625C286.484 142.962 286.774 143.409 286.99 143.966C287.206 144.523 287.314 145.208 287.314 146.023V146.591H280.586V145.432H285.95C285.95 144.939 285.852 144.5 285.655 144.114C285.461 143.727 285.185 143.422 284.825 143.199C284.469 142.975 284.049 142.864 283.564 142.864C283.03 142.864 282.568 142.996 282.177 143.261C281.791 143.523 281.494 143.864 281.285 144.284C281.077 144.705 280.973 145.155 280.973 145.636V146.409C280.973 147.068 281.086 147.627 281.314 148.085C281.545 148.54 281.865 148.886 282.274 149.125C282.683 149.36 283.158 149.477 283.7 149.477C284.052 149.477 284.371 149.428 284.655 149.33C284.943 149.227 285.191 149.076 285.399 148.875C285.607 148.67 285.768 148.417 285.882 148.114L287.177 148.477C287.041 148.917 286.812 149.303 286.49 149.636C286.168 149.966 285.77 150.223 285.297 150.409C284.823 150.591 284.291 150.682 283.7 150.682ZM288.874 150.5V141.773H290.169V143.091H290.26C290.419 142.659 290.707 142.309 291.124 142.04C291.54 141.771 292.01 141.636 292.533 141.636C292.631 141.636 292.754 141.638 292.902 141.642C293.05 141.646 293.161 141.652 293.237 141.659V143.023C293.192 143.011 293.088 142.994 292.925 142.972C292.766 142.945 292.597 142.932 292.419 142.932C291.995 142.932 291.616 143.021 291.283 143.199C290.953 143.373 290.692 143.616 290.499 143.926C290.309 144.233 290.214 144.583 290.214 144.977V150.5H288.874ZM301.749 141.773L298.521 150.5H297.158L293.93 141.773H295.385L297.794 148.727H297.885L300.294 141.773H301.749ZM303.039 150.5V141.773H304.379V150.5H303.039ZM303.72 140.318C303.459 140.318 303.234 140.229 303.044 140.051C302.859 139.873 302.766 139.659 302.766 139.409C302.766 139.159 302.859 138.945 303.044 138.767C303.234 138.589 303.459 138.5 303.72 138.5C303.982 138.5 304.205 138.589 304.391 138.767C304.58 138.945 304.675 139.159 304.675 139.409C304.675 139.659 304.58 139.873 304.391 140.051C304.205 140.229 303.982 140.318 303.72 140.318ZM309.901 150.682C309.083 150.682 308.378 150.489 307.787 150.102C307.196 149.716 306.742 149.184 306.424 148.506C306.105 147.828 305.946 147.053 305.946 146.182C305.946 145.295 306.109 144.513 306.435 143.835C306.764 143.153 307.223 142.621 307.81 142.239C308.401 141.852 309.09 141.659 309.878 141.659C310.492 141.659 311.045 141.773 311.537 142C312.03 142.227 312.433 142.545 312.747 142.955C313.062 143.364 313.257 143.841 313.333 144.386H311.992C311.889 143.989 311.662 143.636 311.31 143.33C310.961 143.019 310.492 142.864 309.901 142.864C309.378 142.864 308.92 143 308.526 143.273C308.136 143.542 307.831 143.922 307.611 144.415C307.395 144.903 307.287 145.477 307.287 146.136C307.287 146.811 307.393 147.398 307.605 147.898C307.821 148.398 308.124 148.786 308.514 149.062C308.908 149.339 309.371 149.477 309.901 149.477C310.249 149.477 310.566 149.417 310.85 149.295C311.134 149.174 311.374 149 311.571 148.773C311.768 148.545 311.908 148.273 311.992 147.955H313.333C313.257 148.47 313.069 148.934 312.77 149.347C312.475 149.756 312.083 150.081 311.594 150.324C311.109 150.562 310.545 150.682 309.901 150.682ZM318.472 150.682C317.631 150.682 316.906 150.496 316.296 150.125C315.69 149.75 315.222 149.227 314.892 148.557C314.567 147.883 314.404 147.098 314.404 146.205C314.404 145.311 314.567 144.523 314.892 143.841C315.222 143.155 315.68 142.621 316.267 142.239C316.858 141.852 317.548 141.659 318.336 141.659C318.79 141.659 319.239 141.735 319.682 141.886C320.125 142.038 320.529 142.284 320.892 142.625C321.256 142.962 321.546 143.409 321.762 143.966C321.978 144.523 322.086 145.208 322.086 146.023V146.591H315.358V145.432H320.722C320.722 144.939 320.624 144.5 320.427 144.114C320.233 143.727 319.957 143.422 319.597 143.199C319.241 142.975 318.82 142.864 318.336 142.864C317.802 142.864 317.339 142.996 316.949 143.261C316.563 143.523 316.266 143.864 316.057 144.284C315.849 144.705 315.745 145.155 315.745 145.636V146.409C315.745 147.068 315.858 147.627 316.086 148.085C316.317 148.54 316.637 148.886 317.046 149.125C317.455 149.36 317.93 149.477 318.472 149.477C318.824 149.477 319.142 149.428 319.427 149.33C319.714 149.227 319.963 149.076 320.171 148.875C320.379 148.67 320.54 148.417 320.654 148.114L321.949 148.477C321.813 148.917 321.584 149.303 321.262 149.636C320.94 149.966 320.542 150.223 320.069 150.409C319.595 150.591 319.063 150.682 318.472 150.682ZM333.054 138.864V150.5H331.691L325.35 141.364H325.236V150.5H323.827V138.864H325.191L331.554 148.023H331.668V138.864H333.054ZM338.758 150.682C337.97 150.682 337.279 150.494 336.684 150.119C336.093 149.744 335.631 149.22 335.298 148.545C334.968 147.871 334.803 147.083 334.803 146.182C334.803 145.273 334.968 144.479 335.298 143.801C335.631 143.123 336.093 142.597 336.684 142.222C337.279 141.847 337.97 141.659 338.758 141.659C339.546 141.659 340.235 141.847 340.826 142.222C341.421 142.597 341.883 143.123 342.212 143.801C342.546 144.479 342.712 145.273 342.712 146.182C342.712 147.083 342.546 147.871 342.212 148.545C341.883 149.22 341.421 149.744 340.826 150.119C340.235 150.494 339.546 150.682 338.758 150.682ZM338.758 149.477C339.356 149.477 339.849 149.324 340.235 149.017C340.621 148.71 340.907 148.307 341.093 147.807C341.279 147.307 341.371 146.765 341.371 146.182C341.371 145.598 341.279 145.055 341.093 144.551C340.907 144.047 340.621 143.64 340.235 143.33C339.849 143.019 339.356 142.864 338.758 142.864C338.159 142.864 337.667 143.019 337.28 143.33C336.894 143.64 336.608 144.047 336.423 144.551C336.237 145.055 336.144 145.598 336.144 146.182C336.144 146.765 336.237 147.307 336.423 147.807C336.608 148.307 336.894 148.71 337.28 149.017C337.667 149.324 338.159 149.477 338.758 149.477ZM345.96 150.5L343.3 141.773H344.71L346.596 148.455H346.687L348.55 141.773H349.982L351.823 148.432H351.914L353.8 141.773H355.21L352.55 150.5H351.232L349.323 143.795H349.187L347.278 150.5H345.96ZM364.318 141.773V142.909H359.795V141.773H364.318ZM361.113 139.682H362.454V148C362.454 148.379 362.509 148.663 362.619 148.852C362.732 149.038 362.876 149.163 363.051 149.227C363.229 149.288 363.416 149.318 363.613 149.318C363.761 149.318 363.882 149.311 363.977 149.295C364.072 149.277 364.147 149.261 364.204 149.25L364.477 150.455C364.386 150.489 364.259 150.523 364.096 150.557C363.933 150.595 363.727 150.614 363.477 150.614C363.098 150.614 362.727 150.532 362.363 150.369C362.003 150.206 361.704 149.958 361.465 149.625C361.231 149.292 361.113 148.871 361.113 148.364V139.682ZM368.423 150.705C367.87 150.705 367.368 150.6 366.917 150.392C366.467 150.18 366.109 149.875 365.843 149.477C365.578 149.076 365.446 148.591 365.446 148.023C365.446 147.523 365.544 147.117 365.741 146.807C365.938 146.492 366.201 146.246 366.531 146.068C366.86 145.89 367.224 145.758 367.622 145.67C368.023 145.58 368.427 145.508 368.832 145.455C369.362 145.386 369.792 145.335 370.122 145.301C370.455 145.263 370.698 145.201 370.849 145.114C371.004 145.027 371.082 144.875 371.082 144.659V144.614C371.082 144.053 370.929 143.617 370.622 143.307C370.319 142.996 369.859 142.841 369.241 142.841C368.601 142.841 368.099 142.981 367.735 143.261C367.372 143.542 367.116 143.841 366.968 144.159L365.696 143.705C365.923 143.174 366.226 142.761 366.605 142.466C366.987 142.167 367.404 141.958 367.855 141.841C368.309 141.72 368.756 141.659 369.196 141.659C369.476 141.659 369.798 141.693 370.162 141.761C370.529 141.826 370.883 141.96 371.224 142.165C371.569 142.369 371.855 142.678 372.082 143.091C372.309 143.504 372.423 144.057 372.423 144.75V150.5H371.082V149.318H371.014C370.923 149.508 370.771 149.71 370.559 149.926C370.347 150.142 370.065 150.326 369.713 150.477C369.36 150.629 368.931 150.705 368.423 150.705ZM368.628 149.5C369.158 149.5 369.605 149.396 369.968 149.188C370.336 148.979 370.612 148.71 370.798 148.381C370.987 148.051 371.082 147.705 371.082 147.341V146.114C371.025 146.182 370.9 146.244 370.707 146.301C370.518 146.354 370.298 146.402 370.048 146.443C369.802 146.481 369.561 146.515 369.326 146.545C369.095 146.572 368.908 146.595 368.764 146.614C368.415 146.659 368.09 146.733 367.787 146.835C367.487 146.934 367.245 147.083 367.059 147.284C366.878 147.481 366.787 147.75 366.787 148.091C366.787 148.557 366.959 148.909 367.304 149.148C367.652 149.383 368.093 149.5 368.628 149.5ZM374.572 150.5V138.864H375.913V143.159H376.027C376.125 143.008 376.262 142.814 376.436 142.58C376.614 142.341 376.868 142.129 377.197 141.943C377.531 141.754 377.981 141.659 378.549 141.659C379.284 141.659 379.932 141.843 380.493 142.21C381.053 142.578 381.491 143.098 381.805 143.773C382.12 144.447 382.277 145.242 382.277 146.159C382.277 147.083 382.12 147.884 381.805 148.562C381.491 149.237 381.055 149.759 380.498 150.131C379.942 150.498 379.299 150.682 378.572 150.682C378.012 150.682 377.563 150.589 377.226 150.403C376.889 150.214 376.629 150 376.447 149.761C376.265 149.519 376.125 149.318 376.027 149.159H375.868V150.5H374.572ZM375.89 146.136C375.89 146.795 375.987 147.377 376.18 147.881C376.373 148.381 376.656 148.773 377.027 149.057C377.398 149.337 377.853 149.477 378.39 149.477C378.951 149.477 379.419 149.33 379.794 149.034C380.173 148.735 380.457 148.333 380.646 147.83C380.839 147.322 380.936 146.758 380.936 146.136C380.936 145.523 380.841 144.97 380.652 144.477C380.466 143.981 380.184 143.589 379.805 143.301C379.43 143.009 378.959 142.864 378.39 142.864C377.845 142.864 377.387 143.002 377.015 143.278C376.644 143.551 376.364 143.934 376.174 144.426C375.985 144.915 375.89 145.485 375.89 146.136ZM385.189 138.864V150.5H383.848V138.864H385.189ZM390.824 150.682C389.983 150.682 389.258 150.496 388.648 150.125C388.042 149.75 387.574 149.227 387.244 148.557C386.919 147.883 386.756 147.098 386.756 146.205C386.756 145.311 386.919 144.523 387.244 143.841C387.574 143.155 388.032 142.621 388.619 142.239C389.21 141.852 389.9 141.659 390.688 141.659C391.142 141.659 391.591 141.735 392.034 141.886C392.477 142.038 392.881 142.284 393.244 142.625C393.608 142.962 393.898 143.409 394.114 143.966C394.33 144.523 394.438 145.208 394.438 146.023V146.591H387.71V145.432H393.074C393.074 144.939 392.975 144.5 392.778 144.114C392.585 143.727 392.309 143.422 391.949 143.199C391.593 142.975 391.172 142.864 390.688 142.864C390.153 142.864 389.691 142.996 389.301 143.261C388.915 143.523 388.617 143.864 388.409 144.284C388.201 144.705 388.097 145.155 388.097 145.636V146.409C388.097 147.068 388.21 147.627 388.438 148.085C388.669 148.54 388.989 148.886 389.398 149.125C389.807 149.36 390.282 149.477 390.824 149.477C391.176 149.477 391.494 149.428 391.778 149.33C392.066 149.227 392.314 149.076 392.523 148.875C392.731 148.67 392.892 148.417 393.006 148.114L394.301 148.477C394.165 148.917 393.936 149.303 393.614 149.636C393.292 149.966 392.894 150.223 392.42 150.409C391.947 150.591 391.415 150.682 390.824 150.682ZM405.017 144.886V146.136H399.926V144.886H405.017ZM414.212 150.682C413.485 150.682 412.843 150.498 412.286 150.131C411.729 149.759 411.294 149.237 410.979 148.562C410.665 147.884 410.508 147.083 410.508 146.159C410.508 145.242 410.665 144.447 410.979 143.773C411.294 143.098 411.731 142.578 412.292 142.21C412.852 141.843 413.5 141.659 414.235 141.659C414.803 141.659 415.252 141.754 415.581 141.943C415.915 142.129 416.169 142.341 416.343 142.58C416.521 142.814 416.659 143.008 416.758 143.159H416.871V138.864H418.212V150.5H416.917V149.159H416.758C416.659 149.318 416.519 149.519 416.337 149.761C416.155 150 415.896 150.214 415.559 150.403C415.222 150.589 414.773 150.682 414.212 150.682ZM414.394 149.477C414.932 149.477 415.386 149.337 415.758 149.057C416.129 148.773 416.411 148.381 416.604 147.881C416.797 147.377 416.894 146.795 416.894 146.136C416.894 145.485 416.799 144.915 416.61 144.426C416.42 143.934 416.14 143.551 415.769 143.278C415.398 143.002 414.939 142.864 414.394 142.864C413.826 142.864 413.352 143.009 412.973 143.301C412.598 143.589 412.316 143.981 412.127 144.477C411.941 144.97 411.848 145.523 411.848 146.136C411.848 146.758 411.943 147.322 412.133 147.83C412.326 148.333 412.61 148.735 412.985 149.034C413.364 149.33 413.833 149.477 414.394 149.477ZM420.374 150.5V141.773H421.715V150.5H420.374ZM421.056 140.318C420.795 140.318 420.569 140.229 420.38 140.051C420.194 139.873 420.101 139.659 420.101 139.409C420.101 139.159 420.194 138.945 420.38 138.767C420.569 138.589 420.795 138.5 421.056 138.5C421.317 138.5 421.541 138.589 421.726 138.767C421.916 138.945 422.011 139.159 422.011 139.409C422.011 139.659 421.916 139.873 421.726 140.051C421.541 140.229 421.317 140.318 421.056 140.318ZM423.691 150.5V141.773H424.986V143.091H425.077C425.236 142.659 425.524 142.309 425.941 142.04C426.358 141.771 426.827 141.636 427.35 141.636C427.449 141.636 427.572 141.638 427.719 141.642C427.867 141.646 427.979 141.652 428.055 141.659V143.023C428.009 143.011 427.905 142.994 427.742 142.972C427.583 142.945 427.415 142.932 427.236 142.932C426.812 142.932 426.433 143.021 426.1 143.199C425.771 143.373 425.509 143.616 425.316 143.926C425.127 144.233 425.032 144.583 425.032 144.977V150.5H423.691ZM432.558 150.682C431.717 150.682 430.991 150.496 430.381 150.125C429.775 149.75 429.308 149.227 428.978 148.557C428.652 147.883 428.489 147.098 428.489 146.205C428.489 145.311 428.652 144.523 428.978 143.841C429.308 143.155 429.766 142.621 430.353 142.239C430.944 141.852 431.633 141.659 432.421 141.659C432.876 141.659 433.325 141.735 433.768 141.886C434.211 142.038 434.614 142.284 434.978 142.625C435.342 142.962 435.631 143.409 435.847 143.966C436.063 144.523 436.171 145.208 436.171 146.023V146.591H429.444V145.432H434.808C434.808 144.939 434.709 144.5 434.512 144.114C434.319 143.727 434.042 143.422 433.683 143.199C433.327 142.975 432.906 142.864 432.421 142.864C431.887 142.864 431.425 142.996 431.035 143.261C430.649 143.523 430.351 143.864 430.143 144.284C429.935 144.705 429.83 145.155 429.83 145.636V146.409C429.83 147.068 429.944 147.627 430.171 148.085C430.402 148.54 430.722 148.886 431.131 149.125C431.541 149.36 432.016 149.477 432.558 149.477C432.91 149.477 433.228 149.428 433.512 149.33C433.8 149.227 434.048 149.076 434.256 148.875C434.465 148.67 434.626 148.417 434.739 148.114L436.035 148.477C435.899 148.917 435.669 149.303 435.347 149.636C435.025 149.966 434.628 150.223 434.154 150.409C433.681 150.591 433.149 150.682 432.558 150.682ZM441.276 150.682C440.458 150.682 439.754 150.489 439.163 150.102C438.572 149.716 438.117 149.184 437.799 148.506C437.481 147.828 437.322 147.053 437.322 146.182C437.322 145.295 437.485 144.513 437.811 143.835C438.14 143.153 438.598 142.621 439.186 142.239C439.776 141.852 440.466 141.659 441.254 141.659C441.867 141.659 442.42 141.773 442.913 142C443.405 142.227 443.809 142.545 444.123 142.955C444.437 143.364 444.633 143.841 444.708 144.386H443.367C443.265 143.989 443.038 143.636 442.686 143.33C442.337 143.019 441.867 142.864 441.276 142.864C440.754 142.864 440.295 143 439.901 143.273C439.511 143.542 439.206 143.922 438.987 144.415C438.771 144.903 438.663 145.477 438.663 146.136C438.663 146.811 438.769 147.398 438.981 147.898C439.197 148.398 439.5 148.786 439.89 149.062C440.284 149.339 440.746 149.477 441.276 149.477C441.625 149.477 441.941 149.417 442.225 149.295C442.509 149.174 442.75 149 442.947 148.773C443.144 148.545 443.284 148.273 443.367 147.955H444.708C444.633 148.47 444.445 148.934 444.146 149.347C443.85 149.756 443.458 150.081 442.97 150.324C442.485 150.562 441.92 150.682 441.276 150.682ZM449.984 141.773V142.909H445.461V141.773H449.984ZM446.779 139.682H448.12V148C448.12 148.379 448.175 148.663 448.285 148.852C448.399 149.038 448.543 149.163 448.717 149.227C448.895 149.288 449.082 149.318 449.279 149.318C449.427 149.318 449.548 149.311 449.643 149.295C449.738 149.277 449.814 149.261 449.87 149.25L450.143 150.455C450.052 150.489 449.925 150.523 449.762 150.557C449.6 150.595 449.393 150.614 449.143 150.614C448.764 150.614 448.393 150.532 448.029 150.369C447.67 150.206 447.37 149.958 447.132 149.625C446.897 149.292 446.779 148.871 446.779 148.364V139.682ZM453.049 138.864V150.5H451.709V138.864H453.049ZM455.889 153.773C455.662 153.773 455.459 153.754 455.281 153.716C455.103 153.682 454.98 153.648 454.912 153.614L455.253 152.432C455.578 152.515 455.866 152.545 456.116 152.523C456.366 152.5 456.588 152.388 456.781 152.188C456.978 151.991 457.158 151.67 457.321 151.227L457.571 150.545L454.344 141.773H455.798L458.207 148.727H458.298L460.707 141.773H462.162L458.457 151.773C458.291 152.223 458.084 152.597 457.838 152.892C457.592 153.191 457.306 153.413 456.98 153.557C456.658 153.701 456.294 153.773 455.889 153.773ZM467.472 150.5V141.773H468.813V150.5H467.472ZM468.153 140.318C467.892 140.318 467.667 140.229 467.477 140.051C467.292 139.873 467.199 139.659 467.199 139.409C467.199 139.159 467.292 138.945 467.477 138.767C467.667 138.589 467.892 138.5 468.153 138.5C468.415 138.5 468.638 138.589 468.824 138.767C469.013 138.945 469.108 139.159 469.108 139.409C469.108 139.659 469.013 139.873 468.824 140.051C468.638 140.229 468.415 140.318 468.153 140.318ZM472.129 145.25V150.5H470.789V141.773H472.084V143.136H472.198C472.402 142.693 472.713 142.337 473.129 142.068C473.546 141.795 474.084 141.659 474.743 141.659C475.334 141.659 475.851 141.78 476.294 142.023C476.737 142.261 477.082 142.625 477.328 143.114C477.575 143.598 477.698 144.212 477.698 144.955V150.5H476.357V145.045C476.357 144.36 476.179 143.826 475.823 143.443C475.467 143.057 474.978 142.864 474.357 142.864C473.929 142.864 473.546 142.956 473.209 143.142C472.876 143.328 472.612 143.598 472.419 143.955C472.226 144.311 472.129 144.742 472.129 145.25ZM485.85 143.727L484.645 144.068C484.569 143.867 484.458 143.672 484.31 143.483C484.166 143.29 483.969 143.131 483.719 143.006C483.469 142.881 483.149 142.818 482.759 142.818C482.225 142.818 481.78 142.941 481.424 143.188C481.071 143.43 480.895 143.739 480.895 144.114C480.895 144.447 481.016 144.71 481.259 144.903C481.501 145.097 481.88 145.258 482.395 145.386L483.691 145.705C484.471 145.894 485.052 146.184 485.435 146.574C485.818 146.96 486.009 147.458 486.009 148.068C486.009 148.568 485.865 149.015 485.577 149.409C485.293 149.803 484.895 150.114 484.384 150.341C483.872 150.568 483.278 150.682 482.6 150.682C481.71 150.682 480.973 150.489 480.389 150.102C479.806 149.716 479.437 149.152 479.282 148.409L480.554 148.091C480.675 148.561 480.905 148.913 481.242 149.148C481.583 149.383 482.028 149.5 482.577 149.5C483.202 149.5 483.698 149.367 484.066 149.102C484.437 148.833 484.622 148.511 484.622 148.136C484.622 147.833 484.516 147.58 484.304 147.375C484.092 147.167 483.766 147.011 483.327 146.909L481.872 146.568C481.073 146.379 480.486 146.085 480.111 145.688C479.74 145.286 479.554 144.784 479.554 144.182C479.554 143.689 479.693 143.254 479.969 142.875C480.249 142.496 480.63 142.199 481.111 141.983C481.596 141.767 482.145 141.659 482.759 141.659C483.622 141.659 484.3 141.848 484.793 142.227C485.289 142.606 485.641 143.106 485.85 143.727ZM487.547 150.5V141.773H488.888V150.5H487.547ZM488.229 140.318C487.968 140.318 487.742 140.229 487.553 140.051C487.367 139.873 487.275 139.659 487.275 139.409C487.275 139.159 487.367 138.945 487.553 138.767C487.742 138.589 487.968 138.5 488.229 138.5C488.49 138.5 488.714 138.589 488.9 138.767C489.089 138.945 489.184 139.159 489.184 139.409C489.184 139.659 489.089 139.873 488.9 140.051C488.714 140.229 488.49 140.318 488.229 140.318ZM494.16 150.682C493.432 150.682 492.79 150.498 492.233 150.131C491.677 149.759 491.241 149.237 490.927 148.562C490.612 147.884 490.455 147.083 490.455 146.159C490.455 145.242 490.612 144.447 490.927 143.773C491.241 143.098 491.679 142.578 492.239 142.21C492.8 141.843 493.447 141.659 494.182 141.659C494.751 141.659 495.199 141.754 495.529 141.943C495.862 142.129 496.116 142.341 496.29 142.58C496.468 142.814 496.607 143.008 496.705 143.159H496.819V138.864H498.16V150.5H496.864V149.159H496.705C496.607 149.318 496.466 149.519 496.285 149.761C496.103 150 495.843 150.214 495.506 150.403C495.169 150.589 494.72 150.682 494.16 150.682ZM494.341 149.477C494.879 149.477 495.334 149.337 495.705 149.057C496.076 148.773 496.358 148.381 496.552 147.881C496.745 147.377 496.841 146.795 496.841 146.136C496.841 145.485 496.747 144.915 496.557 144.426C496.368 143.934 496.088 143.551 495.716 143.278C495.345 143.002 494.887 142.864 494.341 142.864C493.773 142.864 493.3 143.009 492.921 143.301C492.546 143.589 492.264 143.981 492.074 144.477C491.889 144.97 491.796 145.523 491.796 146.136C491.796 146.758 491.891 147.322 492.08 147.83C492.273 148.333 492.557 148.735 492.932 149.034C493.311 149.33 493.781 149.477 494.341 149.477ZM503.981 150.682C503.14 150.682 502.414 150.496 501.805 150.125C501.199 149.75 500.731 149.227 500.401 148.557C500.075 147.883 499.913 147.098 499.913 146.205C499.913 145.311 500.075 144.523 500.401 143.841C500.731 143.155 501.189 142.621 501.776 142.239C502.367 141.852 503.056 141.659 503.844 141.659C504.299 141.659 504.748 141.735 505.191 141.886C505.634 142.038 506.038 142.284 506.401 142.625C506.765 142.962 507.055 143.409 507.27 143.966C507.486 144.523 507.594 145.208 507.594 146.023V146.591H500.867V145.432H506.231C506.231 144.939 506.132 144.5 505.935 144.114C505.742 143.727 505.466 143.422 505.106 143.199C504.75 142.975 504.329 142.864 503.844 142.864C503.31 142.864 502.848 142.996 502.458 143.261C502.072 143.523 501.774 143.864 501.566 144.284C501.358 144.705 501.253 145.155 501.253 145.636V146.409C501.253 147.068 501.367 147.627 501.594 148.085C501.825 148.54 502.145 148.886 502.555 149.125C502.964 149.36 503.439 149.477 503.981 149.477C504.333 149.477 504.651 149.428 504.935 149.33C505.223 149.227 505.471 149.076 505.68 148.875C505.888 148.67 506.049 148.417 506.163 148.114L507.458 148.477C507.322 148.917 507.092 149.303 506.77 149.636C506.449 149.966 506.051 150.223 505.577 150.409C505.104 150.591 504.572 150.682 503.981 150.682ZM522.72 142.5H521.311C521.227 142.095 521.081 141.739 520.873 141.432C520.668 141.125 520.418 140.867 520.123 140.659C519.831 140.447 519.507 140.288 519.151 140.182C518.795 140.076 518.424 140.023 518.038 140.023C517.333 140.023 516.695 140.201 516.123 140.557C515.555 140.913 515.102 141.438 514.765 142.131C514.432 142.824 514.265 143.674 514.265 144.682C514.265 145.689 514.432 146.54 514.765 147.233C515.102 147.926 515.555 148.451 516.123 148.807C516.695 149.163 517.333 149.341 518.038 149.341C518.424 149.341 518.795 149.288 519.151 149.182C519.507 149.076 519.831 148.919 520.123 148.71C520.418 148.498 520.668 148.239 520.873 147.932C521.081 147.621 521.227 147.265 521.311 146.864H522.72C522.614 147.458 522.42 147.991 522.14 148.46C521.86 148.93 521.511 149.33 521.095 149.659C520.678 149.985 520.21 150.233 519.691 150.403C519.176 150.574 518.625 150.659 518.038 150.659C517.045 150.659 516.163 150.417 515.39 149.932C514.617 149.447 514.009 148.758 513.566 147.864C513.123 146.97 512.901 145.909 512.901 144.682C512.901 143.455 513.123 142.394 513.566 141.5C514.009 140.606 514.617 139.917 515.39 139.432C516.163 138.947 517.045 138.705 518.038 138.705C518.625 138.705 519.176 138.79 519.691 138.96C520.21 139.131 520.678 139.381 521.095 139.71C521.511 140.036 521.86 140.434 522.14 140.903C522.42 141.369 522.614 141.902 522.72 142.5ZM525.676 138.864V150.5H524.335V138.864H525.676ZM530.22 150.705C529.667 150.705 529.165 150.6 528.714 150.392C528.263 150.18 527.905 149.875 527.64 149.477C527.375 149.076 527.243 148.591 527.243 148.023C527.243 147.523 527.341 147.117 527.538 146.807C527.735 146.492 527.998 146.246 528.328 146.068C528.657 145.89 529.021 145.758 529.419 145.67C529.82 145.58 530.224 145.508 530.629 145.455C531.159 145.386 531.589 145.335 531.919 145.301C532.252 145.263 532.494 145.201 532.646 145.114C532.801 145.027 532.879 144.875 532.879 144.659V144.614C532.879 144.053 532.726 143.617 532.419 143.307C532.116 142.996 531.655 142.841 531.038 142.841C530.398 142.841 529.896 142.981 529.532 143.261C529.169 143.542 528.913 143.841 528.765 144.159L527.493 143.705C527.72 143.174 528.023 142.761 528.402 142.466C528.784 142.167 529.201 141.958 529.652 141.841C530.106 141.72 530.553 141.659 530.993 141.659C531.273 141.659 531.595 141.693 531.958 141.761C532.326 141.826 532.68 141.96 533.021 142.165C533.366 142.369 533.652 142.678 533.879 143.091C534.106 143.504 534.22 144.057 534.22 144.75V150.5H532.879V149.318H532.811C532.72 149.508 532.568 149.71 532.356 149.926C532.144 150.142 531.862 150.326 531.51 150.477C531.157 150.629 530.727 150.705 530.22 150.705ZM530.424 149.5C530.955 149.5 531.402 149.396 531.765 149.188C532.133 148.979 532.409 148.71 532.595 148.381C532.784 148.051 532.879 147.705 532.879 147.341V146.114C532.822 146.182 532.697 146.244 532.504 146.301C532.315 146.354 532.095 146.402 531.845 146.443C531.599 146.481 531.358 146.515 531.123 146.545C530.892 146.572 530.705 146.595 530.561 146.614C530.212 146.659 529.886 146.733 529.583 146.835C529.284 146.934 529.042 147.083 528.856 147.284C528.674 147.481 528.583 147.75 528.583 148.091C528.583 148.557 528.756 148.909 529.101 149.148C529.449 149.383 529.89 149.5 530.424 149.5ZM541.687 146.932V141.773H543.028V150.5H541.687V149.023H541.596C541.392 149.466 541.074 149.843 540.642 150.153C540.21 150.46 539.665 150.614 539.005 150.614C538.46 150.614 537.975 150.494 537.551 150.256C537.127 150.013 536.793 149.65 536.551 149.165C536.308 148.676 536.187 148.061 536.187 147.318V141.773H537.528V147.227C537.528 147.864 537.706 148.371 538.062 148.75C538.422 149.129 538.88 149.318 539.437 149.318C539.771 149.318 540.11 149.233 540.454 149.062C540.803 148.892 541.094 148.631 541.329 148.278C541.568 147.926 541.687 147.477 541.687 146.932ZM548.3 150.682C547.572 150.682 546.93 150.498 546.373 150.131C545.817 149.759 545.381 149.237 545.067 148.562C544.752 147.884 544.595 147.083 544.595 146.159C544.595 145.242 544.752 144.447 545.067 143.773C545.381 143.098 545.819 142.578 546.379 142.21C546.94 141.843 547.587 141.659 548.322 141.659C548.891 141.659 549.339 141.754 549.669 141.943C550.002 142.129 550.256 142.341 550.43 142.58C550.608 142.814 550.747 143.008 550.845 143.159H550.959V138.864H552.3V150.5H551.004V149.159H550.845C550.747 149.318 550.606 149.519 550.425 149.761C550.243 150 549.983 150.214 549.646 150.403C549.309 150.589 548.86 150.682 548.3 150.682ZM548.481 149.477C549.019 149.477 549.474 149.337 549.845 149.057C550.216 148.773 550.498 148.381 550.692 147.881C550.885 147.377 550.981 146.795 550.981 146.136C550.981 145.485 550.887 144.915 550.697 144.426C550.508 143.934 550.228 143.551 549.856 143.278C549.485 143.002 549.027 142.864 548.481 142.864C547.913 142.864 547.44 143.009 547.061 143.301C546.686 143.589 546.404 143.981 546.214 144.477C546.029 144.97 545.936 145.523 545.936 146.136C545.936 146.758 546.031 147.322 546.22 147.83C546.413 148.333 546.697 148.735 547.072 149.034C547.451 149.33 547.921 149.477 548.481 149.477ZM558.121 150.682C557.28 150.682 556.554 150.496 555.945 150.125C555.339 149.75 554.871 149.227 554.541 148.557C554.215 147.883 554.053 147.098 554.053 146.205C554.053 145.311 554.215 144.523 554.541 143.841C554.871 143.155 555.329 142.621 555.916 142.239C556.507 141.852 557.196 141.659 557.984 141.659C558.439 141.659 558.888 141.735 559.331 141.886C559.774 142.038 560.178 142.284 560.541 142.625C560.905 142.962 561.195 143.409 561.411 143.966C561.626 144.523 561.734 145.208 561.734 146.023V146.591H555.007V145.432H560.371C560.371 144.939 560.272 144.5 560.075 144.114C559.882 143.727 559.606 143.422 559.246 143.199C558.89 142.975 558.469 142.864 557.984 142.864C557.45 142.864 556.988 142.996 556.598 143.261C556.212 143.523 555.914 143.864 555.706 144.284C555.498 144.705 555.393 145.155 555.393 145.636V146.409C555.393 147.068 555.507 147.627 555.734 148.085C555.965 148.54 556.286 148.886 556.695 149.125C557.104 149.36 557.579 149.477 558.121 149.477C558.473 149.477 558.791 149.428 559.075 149.33C559.363 149.227 559.611 149.076 559.82 148.875C560.028 148.67 560.189 148.417 560.303 148.114L561.598 148.477C561.462 148.917 561.232 149.303 560.911 149.636C560.589 149.966 560.191 150.223 559.717 150.409C559.244 150.591 558.712 150.682 558.121 150.682ZM576.86 142.5H575.451C575.367 142.095 575.221 141.739 575.013 141.432C574.808 141.125 574.558 140.867 574.263 140.659C573.971 140.447 573.647 140.288 573.291 140.182C572.935 140.076 572.564 140.023 572.178 140.023C571.473 140.023 570.835 140.201 570.263 140.557C569.695 140.913 569.242 141.438 568.905 142.131C568.572 142.824 568.405 143.674 568.405 144.682C568.405 145.689 568.572 146.54 568.905 147.233C569.242 147.926 569.695 148.451 570.263 148.807C570.835 149.163 571.473 149.341 572.178 149.341C572.564 149.341 572.935 149.288 573.291 149.182C573.647 149.076 573.971 148.919 574.263 148.71C574.558 148.498 574.808 148.239 575.013 147.932C575.221 147.621 575.367 147.265 575.451 146.864H576.86C576.754 147.458 576.56 147.991 576.28 148.46C576 148.93 575.651 149.33 575.235 149.659C574.818 149.985 574.35 150.233 573.831 150.403C573.316 150.574 572.765 150.659 572.178 150.659C571.185 150.659 570.303 150.417 569.53 149.932C568.757 149.447 568.149 148.758 567.706 147.864C567.263 146.97 567.041 145.909 567.041 144.682C567.041 143.455 567.263 142.394 567.706 141.5C568.149 140.606 568.757 139.917 569.53 139.432C570.303 138.947 571.185 138.705 572.178 138.705C572.765 138.705 573.316 138.79 573.831 138.96C574.35 139.131 574.818 139.381 575.235 139.71C575.651 140.036 576 140.434 576.28 140.903C576.56 141.369 576.754 141.902 576.86 142.5ZM582.02 150.682C581.232 150.682 580.541 150.494 579.946 150.119C579.355 149.744 578.893 149.22 578.56 148.545C578.23 147.871 578.066 147.083 578.066 146.182C578.066 145.273 578.23 144.479 578.56 143.801C578.893 143.123 579.355 142.597 579.946 142.222C580.541 141.847 581.232 141.659 582.02 141.659C582.808 141.659 583.497 141.847 584.088 142.222C584.683 142.597 585.145 143.123 585.475 143.801C585.808 144.479 585.975 145.273 585.975 146.182C585.975 147.083 585.808 147.871 585.475 148.545C585.145 149.22 584.683 149.744 584.088 150.119C583.497 150.494 582.808 150.682 582.02 150.682ZM582.02 149.477C582.619 149.477 583.111 149.324 583.497 149.017C583.884 148.71 584.17 148.307 584.355 147.807C584.541 147.307 584.634 146.765 584.634 146.182C584.634 145.598 584.541 145.055 584.355 144.551C584.17 144.047 583.884 143.64 583.497 143.33C583.111 143.019 582.619 142.864 582.02 142.864C581.422 142.864 580.929 143.019 580.543 143.33C580.157 143.64 579.871 144.047 579.685 144.551C579.499 145.055 579.407 145.598 579.407 146.182C579.407 146.765 579.499 147.307 579.685 147.807C579.871 148.307 580.157 148.71 580.543 149.017C580.929 149.324 581.422 149.477 582.02 149.477ZM590.837 150.682C590.11 150.682 589.468 150.498 588.911 150.131C588.354 149.759 587.919 149.237 587.604 148.562C587.29 147.884 587.133 147.083 587.133 146.159C587.133 145.242 587.29 144.447 587.604 143.773C587.919 143.098 588.356 142.578 588.917 142.21C589.477 141.843 590.125 141.659 590.86 141.659C591.428 141.659 591.877 141.754 592.206 141.943C592.54 142.129 592.794 142.341 592.968 142.58C593.146 142.814 593.284 143.008 593.383 143.159H593.496V138.864H594.837V150.5H593.542V149.159H593.383C593.284 149.318 593.144 149.519 592.962 149.761C592.78 150 592.521 150.214 592.184 150.403C591.847 150.589 591.398 150.682 590.837 150.682ZM591.019 149.477C591.557 149.477 592.011 149.337 592.383 149.057C592.754 148.773 593.036 148.381 593.229 147.881C593.422 147.377 593.519 146.795 593.519 146.136C593.519 145.485 593.424 144.915 593.235 144.426C593.045 143.934 592.765 143.551 592.394 143.278C592.023 143.002 591.564 142.864 591.019 142.864C590.451 142.864 589.977 143.009 589.598 143.301C589.223 143.589 588.941 143.981 588.752 144.477C588.566 144.97 588.473 145.523 588.473 146.136C588.473 146.758 588.568 147.322 588.758 147.83C588.951 148.333 589.235 148.735 589.61 149.034C589.989 149.33 590.458 149.477 591.019 149.477ZM600.658 150.682C599.817 150.682 599.092 150.496 598.482 150.125C597.876 149.75 597.408 149.227 597.079 148.557C596.753 147.883 596.59 147.098 596.59 146.205C596.59 145.311 596.753 144.523 597.079 143.841C597.408 143.155 597.867 142.621 598.454 142.239C599.045 141.852 599.734 141.659 600.522 141.659C600.976 141.659 601.425 141.735 601.868 141.886C602.312 142.038 602.715 142.284 603.079 142.625C603.442 142.962 603.732 143.409 603.948 143.966C604.164 144.523 604.272 145.208 604.272 146.023V146.591H597.545V145.432H602.908C602.908 144.939 602.81 144.5 602.613 144.114C602.42 143.727 602.143 143.422 601.783 143.199C601.427 142.975 601.007 142.864 600.522 142.864C599.988 142.864 599.526 142.996 599.136 143.261C598.749 143.523 598.452 143.864 598.243 144.284C598.035 144.705 597.931 145.155 597.931 145.636V146.409C597.931 147.068 598.045 147.627 598.272 148.085C598.503 148.54 598.823 148.886 599.232 149.125C599.641 149.36 600.117 149.477 600.658 149.477C601.011 149.477 601.329 149.428 601.613 149.33C601.901 149.227 602.149 149.076 602.357 148.875C602.565 148.67 602.726 148.417 602.84 148.114L604.136 148.477C603.999 148.917 603.77 149.303 603.448 149.636C603.126 149.966 602.728 150.223 602.255 150.409C601.781 150.591 601.249 150.682 600.658 150.682Z" fill="white"/>
<defs>
<filter id="filter0_d_1_2" x="50.2" y="51.2" width="101.147" height="101.157" filterUnits="userSpaceOnUse" color-interpolation-filters="sRGB">
<feFlood flood-opacity="0" result="BackgroundImageFix"/>
<feColorMatrix in="SourceAlpha" type="matrix" values="0 0 0 0 0 0 0 0 0 0 0 0 0 0 0 0 0 0 127 0" result="hardAlpha"/>
<feOffset dy="1"/>
<feGaussianBlur stdDeviation="0.5"/>
<feComposite in2="hardAlpha" operator="out"/>
<feColorMatrix type="matrix" values="0 0 0 0 0 0 0 0 0 0 0 0 0 0 0 0 0 0 0.25 0"/>
<feBlend mode="normal" in2="BackgroundImageFix" result="effect1_dropShadow_1_2"/>
<feBlend mode="normal" in="SourceGraphic" in2="effect1_dropShadow_1_2" result="shape"/>
</filter>
<linearGradient id="paint0_linear_1_2" x1="0" y1="0" x2="1256.01" y2="294.376" gradientUnits="userSpaceOnUse">
<stop stop-color="#101722"/>
<stop offset="1" stop-color="#123425"/>
</linearGradient>
<linearGradient id="paint1_linear_1_2" x1="160" y1="160" x2="32" y2="32" gradientUnits="userSpaceOnUse">
<stop stop-color="#0EC375"/>
<stop offset="1" stop-color="#A1E618"/>
</linearGradient>
<linearGradient id="paint2_linear_1_2" x1="435" y1="88.1154" x2="192" y2="88.1154" gradientUnits="userSpaceOnUse">
<stop stop-color="#0EC375"/>
<stop offset="1" stop-color="#A1E618"/>
</linearGradient>
</defs>
</svg>
