<svg width="1280" height="192" viewBox="0 0 1280 192" fill="none" xmlns="http://www.w3.org/2000/svg">
<rect width="1280" height="192" rx="24" fill="url(#paint0_linear_1_2)"/>
<rect x="32" y="32" width="128" height="128" rx="16" fill="url(#paint1_linear_1_2)"/>
<g style="mix-blend-mode:soft-light" opacity="0.75">
<path d="M119.95 99.1501C131.44 99.1501 140.75 108.46 140.75 119.95C140.75 124.54 139.26 128.78 136.75 132.22L149.41 144.89C150.66 146.14 150.66 148.17 149.41 149.42C148.16 150.67 146.13 150.67 144.88 149.42L132.22 136.75C128.78 139.26 124.54 140.75 119.95 140.75C119.645 140.75 119.342 140.742 119.04 140.729C119.065 140.73 119.091 140.732 119.116 140.733C119.037 140.73 118.958 140.727 118.88 140.723C118.793 140.719 118.707 140.713 118.621 140.708C118.648 140.709 118.674 140.71 118.701 140.712C107.793 140.066 99.1501 131.021 99.1501 119.95C99.1502 108.46 108.46 99.1502 119.95 99.1501ZM128 51.2C135.06 51.2 140.8 56.9399 140.801 63.9998V105.092C139.053 102.643 136.884 100.515 134.4 98.8142V83.2H115.2V94.7898C112.949 95.212 110.802 95.9286 108.801 96.8982V83.2H83.2V105.6H98.7458C97.4192 107.557 96.3562 109.707 95.6082 112H83.2V134.4H98.8142C100.515 136.884 102.643 139.053 105.092 140.801H63.9998C56.9399 140.8 51.2 135.06 51.2 128V63.9998C51.2001 56.9399 56.9399 51.2001 63.9998 51.2H128ZM57.6003 128C57.6003 131.54 60.4599 134.4 63.9998 134.4H76.8005V112H57.6003V128ZM119.95 105.55C112 105.55 105.55 112 105.55 119.95C105.55 127.9 112 134.35 119.95 134.35C127.9 134.35 134.35 127.9 134.35 119.95C134.35 112 127.9 105.55 119.95 105.55ZM57.6003 105.6H76.8005V83.2H57.6003V105.6ZM63.9998 57.6003C60.46 57.6005 57.6005 60.46 57.6003 63.9998V76.8005H134.4V63.9998C134.4 60.4599 131.54 57.6003 128 57.6003H63.9998Z" fill="white"/>
</g>
<g style="mix-blend-mode:overlay" opacity="0.5">
<g filter="url(#filter0_d_1_2)">
<path d="M119.95 99.1501C131.44 99.1501 140.75 108.46 140.75 119.95C140.75 124.54 139.26 128.78 136.75 132.22L149.41 144.89C150.66 146.14 150.66 148.17 149.41 149.42C148.16 150.67 146.13 150.67 144.88 149.42L132.22 136.75C128.78 139.26 124.54 140.75 119.95 140.75C119.645 140.75 119.342 140.742 119.04 140.729C119.065 140.73 119.091 140.732 119.116 140.733C119.037 140.73 118.958 140.727 118.88 140.723C118.793 140.719 118.707 140.713 118.621 140.708C118.648 140.709 118.674 140.71 118.701 140.712C107.793 140.066 99.1501 131.021 99.1501 119.95C99.1502 108.46 108.46 99.1502 119.95 99.1501ZM128 51.2C135.06 51.2 140.8 56.9399 140.801 63.9998V105.092C139.053 102.643 136.884 100.515 134.4 98.8142V83.2H115.2V94.7898C112.949 95.212 110.802 95.9286 108.801 96.8982V83.2H83.2V105.6H98.7458C97.4192 107.557 96.3562 109.707 95.6082 112H83.2V134.4H98.8142C100.515 136.884 102.643 139.053 105.092 140.801H63.9998C56.9399 140.8 51.2 135.06 51.2 128V63.9998C51.2001 56.9399 56.9399 51.2001 63.9998 51.2H128ZM57.6003 128C57.6003 131.54 60.4599 134.4 63.9998 134.4H76.8005V112H57.6003V128ZM119.95 105.55C112 105.55 105.55 112 105.55 119.95C105.55 127.9 112 134.35 119.95 134.35C127.9 134.35 134.35 127.9 134.35 119.95C134.35 112 127.9 105.55 119.95 105.55ZM57.6003 105.6H76.8005V83.2H57.6003V105.6ZM63.9998 57.6003C60.46 57.6005 57.6005 60.46 57.6003 63.9998V76.8005H134.4V63.9998C134.4 60.4599 131.54 57.6003 128 57.6003H63.9998Z" fill="white"/>
</g>
</g>
<path d="M119.95 99.1501C131.44 99.1501 140.75 108.46 140.75 119.95C140.75 124.54 139.26 128.78 136.75 132.22L149.41 144.89C150.66 146.14 150.66 148.17 149.41 149.42C148.16 150.67 146.13 150.67 144.88 149.42L132.22 136.75C128.78 139.26 124.54 140.75 119.95 140.75C119.645 140.75 119.342 140.742 119.04 140.729C119.065 140.73 119.091 140.732 119.116 140.733C119.037 140.73 118.958 140.727 118.88 140.723C118.793 140.719 118.707 140.713 118.621 140.708C118.648 140.709 118.674 140.71 118.701 140.712C107.793 140.066 99.1501 131.021 99.1501 119.95C99.1502 108.46 108.46 99.1502 119.95 99.1501ZM128 51.2C135.06 51.2 140.8 56.9399 140.801 63.9998V105.092C139.053 102.643 136.884 100.515 134.4 98.8142V83.2H115.2V94.7898C112.949 95.212 110.802 95.9286 108.801 96.8982V83.2H83.2V105.6H98.7458C97.4192 107.557 96.3562 109.707 95.6082 112H83.2V134.4H98.8142C100.515 136.884 102.643 139.053 105.092 140.801H63.9998C56.9399 140.8 51.2 135.06 51.2 128V63.9998C51.2001 56.9399 56.9399 51.2001 63.9998 51.2H128ZM57.6003 128C57.6003 131.54 60.4599 134.4 63.9998 134.4H76.8005V112H57.6003V128ZM119.95 105.55C112 105.55 105.55 112 105.55 119.95C105.55 127.9 112 134.35 119.95 134.35C127.9 134.35 134.35 127.9 134.35 119.95C134.35 112 127.9 105.55 119.95 105.55ZM57.6003 105.6H76.8005V83.2H57.6003V105.6ZM63.9998 57.6003C60.46 57.6005 57.6005 60.46 57.6003 63.9998V76.8005H134.4V63.9998C134.4 60.4599 131.54 57.6003 128 57.6003H63.9998Z" fill="white" fill-opacity="0.8"/>
<path d="M119.95 99.1501C131.44 99.1501 140.75 108.46 140.75 119.95C140.75 124.54 139.26 128.78 136.75 132.22L149.41 144.89C150.66 146.14 150.66 148.17 149.41 149.42C148.16 150.67 146.13 150.67 144.88 149.42L132.22 136.75C128.78 139.26 124.54 140.75 119.95 140.75C119.645 140.75 119.342 140.742 119.04 140.729C119.065 140.73 119.091 140.732 119.116 140.733C119.037 140.73 118.958 140.727 118.88 140.723C118.793 140.719 118.707 140.713 118.621 140.708C118.648 140.709 118.674 140.71 118.701 140.712C107.793 140.066 99.1501 131.021 99.1501 119.95C99.1502 108.46 108.46 99.1502 119.95 99.1501ZM128 51.2C135.06 51.2 140.8 56.9399 140.801 63.9998V105.092C139.053 102.643 136.884 100.515 134.4 98.8142V83.2H115.2V94.7898C112.949 95.212 110.802 95.9286 108.801 96.8982V83.2H83.2V105.6H98.7458C97.4192 107.557 96.3562 109.707 95.6082 112H83.2V134.4H98.8142C100.515 136.884 102.643 139.053 105.092 140.801H63.9998C56.9399 140.8 51.2 135.06 51.2 128V63.9998C51.2001 56.9399 56.9399 51.2001 63.9998 51.2H128ZM57.6003 128C57.6003 131.54 60.4599 134.4 63.9998 134.4H76.8005V112H57.6003V128ZM119.95 105.55C112 105.55 105.55 112 105.55 119.95C105.55 127.9 112 134.35 119.95 134.35C127.9 134.35 134.35 127.9 134.35 119.95C134.35 112 127.9 105.55 119.95 105.55ZM57.6003 105.6H76.8005V83.2H57.6003V105.6ZM63.9998 57.6003C60.46 57.6005 57.6005 60.46 57.6003 63.9998V76.8005H134.4V63.9998C134.4 60.4599 131.54 57.6003 128 57.6003H63.9998Z" fill="#1D1D1F"/>
<path d="M203.207 45.8438C203.128 45.0994 202.793 44.5199 202.202 44.1051C201.616 43.6903 200.855 43.483 199.918 43.483C199.259 43.483 198.693 43.5824 198.222 43.7812C197.75 43.9801 197.389 44.25 197.139 44.5909C196.889 44.9318 196.761 45.321 196.756 45.7585C196.756 46.1222 196.838 46.4375 197.003 46.7045C197.173 46.9716 197.403 47.1989 197.693 47.3864C197.983 47.5682 198.304 47.7216 198.656 47.8466C199.009 47.9716 199.364 48.0767 199.722 48.1619L201.358 48.571C202.017 48.7244 202.651 48.9318 203.259 49.1932C203.872 49.4545 204.42 49.7841 204.903 50.1818C205.392 50.5795 205.778 51.0597 206.062 51.6222C206.347 52.1847 206.489 52.8437 206.489 53.5994C206.489 54.6222 206.227 55.5227 205.705 56.3011C205.182 57.0739 204.426 57.679 203.438 58.1165C202.455 58.5483 201.264 58.7642 199.866 58.7642C198.509 58.7642 197.33 58.554 196.33 58.1335C195.335 57.7131 194.557 57.0994 193.994 56.2926C193.438 55.4858 193.136 54.5028 193.091 53.3438H196.202C196.247 53.9517 196.435 54.4574 196.764 54.8608C197.094 55.2642 197.523 55.5653 198.051 55.7642C198.585 55.9631 199.182 56.0625 199.841 56.0625C200.528 56.0625 201.131 55.9602 201.648 55.7557C202.17 55.5455 202.58 55.2557 202.875 54.8864C203.17 54.5114 203.321 54.0739 203.327 53.5739C203.321 53.1193 203.188 52.7443 202.926 52.4489C202.665 52.1477 202.298 51.8977 201.827 51.6989C201.361 51.4943 200.815 51.3125 200.19 51.1534L198.205 50.642C196.767 50.2727 195.631 49.7131 194.795 48.9631C193.966 48.2074 193.551 47.2045 193.551 45.9545C193.551 44.9261 193.83 44.0256 194.386 43.2528C194.949 42.4801 195.713 41.8807 196.679 41.4545C197.645 41.0227 198.739 40.8068 199.96 40.8068C201.199 40.8068 202.284 41.0227 203.216 41.4545C204.153 41.8807 204.889 42.4744 205.423 43.2358C205.957 43.9915 206.233 44.8608 206.25 45.8438H203.207ZM214.967 58.7557C213.654 58.7557 212.521 58.483 211.566 57.9375C210.617 57.3864 209.887 56.608 209.376 55.6023C208.864 54.5909 208.609 53.4006 208.609 52.0312C208.609 50.6847 208.864 49.5028 209.376 48.4858C209.893 47.4631 210.614 46.6676 211.54 46.0994C212.467 45.5256 213.555 45.2386 214.805 45.2386C215.612 45.2386 216.373 45.3693 217.089 45.6307C217.81 45.8864 218.447 46.2841 218.998 46.8239C219.555 47.3636 219.992 48.0511 220.31 48.8864C220.629 49.7159 220.788 50.7045 220.788 51.8523V52.7983H210.058V50.7188H217.83C217.825 50.1278 217.697 49.6023 217.447 49.142C217.197 48.6761 216.847 48.3097 216.398 48.0426C215.955 47.7756 215.438 47.642 214.847 47.642C214.217 47.642 213.663 47.7955 213.185 48.1023C212.708 48.4034 212.336 48.8011 212.069 49.2955C211.808 49.7841 211.674 50.321 211.668 50.9062V52.7216C211.668 53.483 211.808 54.1364 212.086 54.6818C212.364 55.2216 212.754 55.6364 213.254 55.9261C213.754 56.2102 214.339 56.3523 215.009 56.3523C215.458 56.3523 215.864 56.2898 216.228 56.1648C216.592 56.0341 216.907 55.8438 217.174 55.5938C217.441 55.3438 217.643 55.0341 217.779 54.6648L220.66 54.9886C220.478 55.75 220.131 56.4148 219.62 56.983C219.114 57.5455 218.467 57.983 217.677 58.2955C216.887 58.6023 215.984 58.7557 214.967 58.7557ZM223.398 58.5V45.4091H226.389V47.5909H226.526C226.764 46.8352 227.173 46.2528 227.753 45.8438C228.338 45.429 229.006 45.2216 229.756 45.2216C229.926 45.2216 230.116 45.2301 230.327 45.2472C230.543 45.2585 230.722 45.2784 230.864 45.3068V48.1449C230.733 48.0994 230.526 48.0597 230.241 48.0256C229.963 47.9858 229.693 47.9659 229.432 47.9659C228.869 47.9659 228.364 48.0881 227.915 48.3324C227.472 48.571 227.122 48.9034 226.866 49.3295C226.611 49.7557 226.483 50.2472 226.483 50.804V58.5H223.398ZM245.005 45.4091L240.343 58.5H236.934L232.272 45.4091H235.562L238.57 55.1335H238.707L241.724 45.4091H245.005ZM247.14 58.5V45.4091H250.225V58.5H247.14ZM248.691 43.5511C248.202 43.5511 247.782 43.3892 247.43 43.0653C247.077 42.7358 246.901 42.3409 246.901 41.8807C246.901 41.4148 247.077 41.0199 247.43 40.696C247.782 40.3665 248.202 40.2017 248.691 40.2017C249.185 40.2017 249.606 40.3665 249.952 40.696C250.305 41.0199 250.481 41.4148 250.481 41.8807C250.481 42.3409 250.305 42.7358 249.952 43.0653C249.606 43.3892 249.185 43.5511 248.691 43.5511ZM259.108 58.7557C257.801 58.7557 256.679 58.4688 255.741 57.8949C254.81 57.321 254.091 56.5284 253.585 55.517C253.085 54.5 252.835 53.3295 252.835 52.0057C252.835 50.6761 253.091 49.5028 253.602 48.4858C254.114 47.4631 254.835 46.6676 255.767 46.0994C256.705 45.5256 257.813 45.2386 259.091 45.2386C260.153 45.2386 261.094 45.4347 261.912 45.8267C262.736 46.2131 263.392 46.7614 263.881 47.4716C264.369 48.1761 264.648 49 264.716 49.9432H261.767C261.648 49.3125 261.364 48.7869 260.915 48.3665C260.472 47.9403 259.878 47.7273 259.134 47.7273C258.503 47.7273 257.949 47.8977 257.472 48.2386C256.994 48.5739 256.622 49.0568 256.355 49.6875C256.094 50.3182 255.963 51.0739 255.963 51.9545C255.963 52.8466 256.094 53.6136 256.355 54.2557C256.616 54.892 256.983 55.3835 257.455 55.7301C257.932 56.071 258.491 56.2415 259.134 56.2415C259.588 56.2415 259.994 56.1562 260.352 55.9858C260.716 55.8097 261.02 55.5568 261.264 55.2273C261.509 54.8977 261.676 54.4972 261.767 54.0256H264.716C264.642 54.9517 264.369 55.7727 263.898 56.4886C263.426 57.1989 262.784 57.7557 261.972 58.1591C261.159 58.5568 260.205 58.7557 259.108 58.7557ZM273.045 58.7557C271.732 58.7557 270.599 58.483 269.644 57.9375C268.695 57.3864 267.965 56.608 267.454 55.6023C266.942 54.5909 266.687 53.4006 266.687 52.0312C266.687 50.6847 266.942 49.5028 267.454 48.4858C267.971 47.4631 268.692 46.6676 269.619 46.0994C270.545 45.5256 271.633 45.2386 272.883 45.2386C273.69 45.2386 274.451 45.3693 275.167 45.6307C275.888 45.8864 276.525 46.2841 277.076 46.8239C277.633 47.3636 278.07 48.0511 278.388 48.8864C278.707 49.7159 278.866 50.7045 278.866 51.8523V52.7983H268.136V50.7188H275.908C275.903 50.1278 275.775 49.6023 275.525 49.142C275.275 48.6761 274.925 48.3097 274.477 48.0426C274.033 47.7756 273.516 47.642 272.925 47.642C272.295 47.642 271.741 47.7955 271.263 48.1023C270.786 48.4034 270.414 48.8011 270.147 49.2955C269.886 49.7841 269.752 50.321 269.746 50.9062V52.7216C269.746 53.483 269.886 54.1364 270.164 54.6818C270.442 55.2216 270.832 55.6364 271.332 55.9261C271.832 56.2102 272.417 56.3523 273.087 56.3523C273.536 56.3523 273.942 56.2898 274.306 56.1648C274.67 56.0341 274.985 55.8438 275.252 55.5938C275.519 55.3438 275.721 55.0341 275.857 54.6648L278.738 54.9886C278.556 55.75 278.21 56.4148 277.698 56.983C277.192 57.5455 276.545 57.983 275.755 58.2955C274.965 58.6023 274.062 58.7557 273.045 58.7557ZM295.956 41.0455V58.5H293.143L284.919 46.6108H284.774V58.5H281.612V41.0455H284.442L292.658 52.9432H292.811V41.0455H295.956ZM304.975 58.7557C303.697 58.7557 302.589 58.4744 301.651 57.9119C300.714 57.3494 299.987 56.5625 299.469 55.5511C298.958 54.5398 298.702 53.358 298.702 52.0057C298.702 50.6534 298.958 49.4687 299.469 48.4517C299.987 47.4347 300.714 46.6449 301.651 46.0824C302.589 45.5199 303.697 45.2386 304.975 45.2386C306.254 45.2386 307.362 45.5199 308.299 46.0824C309.237 46.6449 309.961 47.4347 310.472 48.4517C310.989 49.4687 311.248 50.6534 311.248 52.0057C311.248 53.358 310.989 54.5398 310.472 55.5511C309.961 56.5625 309.237 57.3494 308.299 57.9119C307.362 58.4744 306.254 58.7557 304.975 58.7557ZM304.992 56.2841C305.685 56.2841 306.265 56.0937 306.731 55.7131C307.197 55.3267 307.543 54.8097 307.771 54.1619C308.004 53.5142 308.12 52.7926 308.12 51.9972C308.12 51.196 308.004 50.4716 307.771 49.8239C307.543 49.1705 307.197 48.6506 306.731 48.2642C306.265 47.8778 305.685 47.6847 304.992 47.6847C304.282 47.6847 303.691 47.8778 303.219 48.2642C302.754 48.6506 302.404 49.1705 302.171 49.8239C301.944 50.4716 301.83 51.196 301.83 51.9972C301.83 52.7926 301.944 53.5142 302.171 54.1619C302.404 54.8097 302.754 55.3267 303.219 55.7131C303.691 56.0937 304.282 56.2841 304.992 56.2841ZM316.193 58.5L312.494 45.4091H315.639L317.94 54.6136H318.06L320.412 45.4091H323.523L325.875 54.5625H326.003L328.27 45.4091H331.423L327.716 58.5H324.503L322.048 49.6534H321.869L319.415 58.5H316.193Z" fill="white"/>
<path d="M203.207 45.8438C203.128 45.0994 202.793 44.5199 202.202 44.1051C201.616 43.6903 200.855 43.483 199.918 43.483C199.259 43.483 198.693 43.5824 198.222 43.7812C197.75 43.9801 197.389 44.25 197.139 44.5909C196.889 44.9318 196.761 45.321 196.756 45.7585C196.756 46.1222 196.838 46.4375 197.003 46.7045C197.173 46.9716 197.403 47.1989 197.693 47.3864C197.983 47.5682 198.304 47.7216 198.656 47.8466C199.009 47.9716 199.364 48.0767 199.722 48.1619L201.358 48.571C202.017 48.7244 202.651 48.9318 203.259 49.1932C203.872 49.4545 204.42 49.7841 204.903 50.1818C205.392 50.5795 205.778 51.0597 206.062 51.6222C206.347 52.1847 206.489 52.8437 206.489 53.5994C206.489 54.6222 206.227 55.5227 205.705 56.3011C205.182 57.0739 204.426 57.679 203.438 58.1165C202.455 58.5483 201.264 58.7642 199.866 58.7642C198.509 58.7642 197.33 58.554 196.33 58.1335C195.335 57.7131 194.557 57.0994 193.994 56.2926C193.438 55.4858 193.136 54.5028 193.091 53.3438H196.202C196.247 53.9517 196.435 54.4574 196.764 54.8608C197.094 55.2642 197.523 55.5653 198.051 55.7642C198.585 55.9631 199.182 56.0625 199.841 56.0625C200.528 56.0625 201.131 55.9602 201.648 55.7557C202.17 55.5455 202.58 55.2557 202.875 54.8864C203.17 54.5114 203.321 54.0739 203.327 53.5739C203.321 53.1193 203.188 52.7443 202.926 52.4489C202.665 52.1477 202.298 51.8977 201.827 51.6989C201.361 51.4943 200.815 51.3125 200.19 51.1534L198.205 50.642C196.767 50.2727 195.631 49.7131 194.795 48.9631C193.966 48.2074 193.551 47.2045 193.551 45.9545C193.551 44.9261 193.83 44.0256 194.386 43.2528C194.949 42.4801 195.713 41.8807 196.679 41.4545C197.645 41.0227 198.739 40.8068 199.96 40.8068C201.199 40.8068 202.284 41.0227 203.216 41.4545C204.153 41.8807 204.889 42.4744 205.423 43.2358C205.957 43.9915 206.233 44.8608 206.25 45.8438H203.207ZM214.967 58.7557C213.654 58.7557 212.521 58.483 211.566 57.9375C210.617 57.3864 209.887 56.608 209.376 55.6023C208.864 54.5909 208.609 53.4006 208.609 52.0312C208.609 50.6847 208.864 49.5028 209.376 48.4858C209.893 47.4631 210.614 46.6676 211.54 46.0994C212.467 45.5256 213.555 45.2386 214.805 45.2386C215.612 45.2386 216.373 45.3693 217.089 45.6307C217.81 45.8864 218.447 46.2841 218.998 46.8239C219.555 47.3636 219.992 48.0511 220.31 48.8864C220.629 49.7159 220.788 50.7045 220.788 51.8523V52.7983H210.058V50.7188H217.83C217.825 50.1278 217.697 49.6023 217.447 49.142C217.197 48.6761 216.847 48.3097 216.398 48.0426C215.955 47.7756 215.438 47.642 214.847 47.642C214.217 47.642 213.663 47.7955 213.185 48.1023C212.708 48.4034 212.336 48.8011 212.069 49.2955C211.808 49.7841 211.674 50.321 211.668 50.9062V52.7216C211.668 53.483 211.808 54.1364 212.086 54.6818C212.364 55.2216 212.754 55.6364 213.254 55.9261C213.754 56.2102 214.339 56.3523 215.009 56.3523C215.458 56.3523 215.864 56.2898 216.228 56.1648C216.592 56.0341 216.907 55.8438 217.174 55.5938C217.441 55.3438 217.643 55.0341 217.779 54.6648L220.66 54.9886C220.478 55.75 220.131 56.4148 219.62 56.983C219.114 57.5455 218.467 57.983 217.677 58.2955C216.887 58.6023 215.984 58.7557 214.967 58.7557ZM223.398 58.5V45.4091H226.389V47.5909H226.526C226.764 46.8352 227.173 46.2528 227.753 45.8438C228.338 45.429 229.006 45.2216 229.756 45.2216C229.926 45.2216 230.116 45.2301 230.327 45.2472C230.543 45.2585 230.722 45.2784 230.864 45.3068V48.1449C230.733 48.0994 230.526 48.0597 230.241 48.0256C229.963 47.9858 229.693 47.9659 229.432 47.9659C228.869 47.9659 228.364 48.0881 227.915 48.3324C227.472 48.571 227.122 48.9034 226.866 49.3295C226.611 49.7557 226.483 50.2472 226.483 50.804V58.5H223.398ZM245.005 45.4091L240.343 58.5H236.934L232.272 45.4091H235.562L238.57 55.1335H238.707L241.724 45.4091H245.005ZM247.14 58.5V45.4091H250.225V58.5H247.14ZM248.691 43.5511C248.202 43.5511 247.782 43.3892 247.43 43.0653C247.077 42.7358 246.901 42.3409 246.901 41.8807C246.901 41.4148 247.077 41.0199 247.43 40.696C247.782 40.3665 248.202 40.2017 248.691 40.2017C249.185 40.2017 249.606 40.3665 249.952 40.696C250.305 41.0199 250.481 41.4148 250.481 41.8807C250.481 42.3409 250.305 42.7358 249.952 43.0653C249.606 43.3892 249.185 43.5511 248.691 43.5511ZM259.108 58.7557C257.801 58.7557 256.679 58.4688 255.741 57.8949C254.81 57.321 254.091 56.5284 253.585 55.517C253.085 54.5 252.835 53.3295 252.835 52.0057C252.835 50.6761 253.091 49.5028 253.602 48.4858C254.114 47.4631 254.835 46.6676 255.767 46.0994C256.705 45.5256 257.813 45.2386 259.091 45.2386C260.153 45.2386 261.094 45.4347 261.912 45.8267C262.736 46.2131 263.392 46.7614 263.881 47.4716C264.369 48.1761 264.648 49 264.716 49.9432H261.767C261.648 49.3125 261.364 48.7869 260.915 48.3665C260.472 47.9403 259.878 47.7273 259.134 47.7273C258.503 47.7273 257.949 47.8977 257.472 48.2386C256.994 48.5739 256.622 49.0568 256.355 49.6875C256.094 50.3182 255.963 51.0739 255.963 51.9545C255.963 52.8466 256.094 53.6136 256.355 54.2557C256.616 54.892 256.983 55.3835 257.455 55.7301C257.932 56.071 258.491 56.2415 259.134 56.2415C259.588 56.2415 259.994 56.1562 260.352 55.9858C260.716 55.8097 261.02 55.5568 261.264 55.2273C261.509 54.8977 261.676 54.4972 261.767 54.0256H264.716C264.642 54.9517 264.369 55.7727 263.898 56.4886C263.426 57.1989 262.784 57.7557 261.972 58.1591C261.159 58.5568 260.205 58.7557 259.108 58.7557ZM273.045 58.7557C271.732 58.7557 270.599 58.483 269.644 57.9375C268.695 57.3864 267.965 56.608 267.454 55.6023C266.942 54.5909 266.687 53.4006 266.687 52.0312C266.687 50.6847 266.942 49.5028 267.454 48.4858C267.971 47.4631 268.692 46.6676 269.619 46.0994C270.545 45.5256 271.633 45.2386 272.883 45.2386C273.69 45.2386 274.451 45.3693 275.167 45.6307C275.888 45.8864 276.525 46.2841 277.076 46.8239C277.633 47.3636 278.07 48.0511 278.388 48.8864C278.707 49.7159 278.866 50.7045 278.866 51.8523V52.7983H268.136V50.7188H275.908C275.903 50.1278 275.775 49.6023 275.525 49.142C275.275 48.6761 274.925 48.3097 274.477 48.0426C274.033 47.7756 273.516 47.642 272.925 47.642C272.295 47.642 271.741 47.7955 271.263 48.1023C270.786 48.4034 270.414 48.8011 270.147 49.2955C269.886 49.7841 269.752 50.321 269.746 50.9062V52.7216C269.746 53.483 269.886 54.1364 270.164 54.6818C270.442 55.2216 270.832 55.6364 271.332 55.9261C271.832 56.2102 272.417 56.3523 273.087 56.3523C273.536 56.3523 273.942 56.2898 274.306 56.1648C274.67 56.0341 274.985 55.8438 275.252 55.5938C275.519 55.3438 275.721 55.0341 275.857 54.6648L278.738 54.9886C278.556 55.75 278.21 56.4148 277.698 56.983C277.192 57.5455 276.545 57.983 275.755 58.2955C274.965 58.6023 274.062 58.7557 273.045 58.7557ZM295.956 41.0455V58.5H293.143L284.919 46.6108H284.774V58.5H281.612V41.0455H284.442L292.658 52.9432H292.811V41.0455H295.956ZM304.975 58.7557C303.697 58.7557 302.589 58.4744 301.651 57.9119C300.714 57.3494 299.987 56.5625 299.469 55.5511C298.958 54.5398 298.702 53.358 298.702 52.0057C298.702 50.6534 298.958 49.4687 299.469 48.4517C299.987 47.4347 300.714 46.6449 301.651 46.0824C302.589 45.5199 303.697 45.2386 304.975 45.2386C306.254 45.2386 307.362 45.5199 308.299 46.0824C309.237 46.6449 309.961 47.4347 310.472 48.4517C310.989 49.4687 311.248 50.6534 311.248 52.0057C311.248 53.358 310.989 54.5398 310.472 55.5511C309.961 56.5625 309.237 57.3494 308.299 57.9119C307.362 58.4744 306.254 58.7557 304.975 58.7557ZM304.992 56.2841C305.685 56.2841 306.265 56.0937 306.731 55.7131C307.197 55.3267 307.543 54.8097 307.771 54.1619C308.004 53.5142 308.12 52.7926 308.12 51.9972C308.12 51.196 308.004 50.4716 307.771 49.8239C307.543 49.1705 307.197 48.6506 306.731 48.2642C306.265 47.8778 305.685 47.6847 304.992 47.6847C304.282 47.6847 303.691 47.8778 303.219 48.2642C302.754 48.6506 302.404 49.1705 302.171 49.8239C301.944 50.4716 301.83 51.196 301.83 51.9972C301.83 52.7926 301.944 53.5142 302.171 54.1619C302.404 54.8097 302.754 55.3267 303.219 55.7131C303.691 56.0937 304.282 56.2841 304.992 56.2841ZM316.193 58.5L312.494 45.4091H315.639L317.94 54.6136H318.06L320.412 45.4091H323.523L325.875 54.5625H326.003L328.27 45.4091H331.423L327.716 58.5H324.503L322.048 49.6534H321.869L319.415 58.5H316.193Z" fill="black" fill-opacity="0.03"/>
<path d="M208.128 103.172C204 103.172 200.72 102.02 198.288 99.716C195.856 97.38 194.64 94.02 194.64 89.636V81.764C194.64 77.38 195.856 74.036 198.288 71.732C200.72 69.396 204 68.228 208.128 68.228C212.256 68.228 215.536 69.396 217.968 71.732C220.432 74.036 221.664 77.38 221.664 81.764V89.636C221.664 94.02 220.432 97.38 217.968 99.716C215.536 102.02 212.256 103.172 208.128 103.172ZM208.128 98.516C210.784 98.516 212.832 97.748 214.272 96.212C215.712 94.644 216.432 92.516 216.432 89.828V81.572C216.432 78.884 215.712 76.772 214.272 75.236C212.832 73.668 210.784 72.884 208.128 72.884C205.536 72.884 203.504 73.668 202.032 75.236C200.56 76.772 199.824 78.884 199.824 81.572V89.828C199.824 92.516 200.56 94.644 202.032 96.212C203.504 97.748 205.536 98.516 208.128 98.516ZM210.192 110.708C208.816 110.708 207.696 110.276 206.832 109.412C206 108.58 205.584 107.444 205.584 106.004V102.5H210.672V105.14C210.672 106.1 211.12 106.58 212.016 106.58H214.992V110.708H210.192ZM237.017 102.932C235.225 102.932 233.625 102.532 232.217 101.732C230.809 100.932 229.705 99.796 228.905 98.324C228.105 96.852 227.705 95.092 227.705 93.044V78.836H232.649V92.708C232.649 94.756 233.161 96.276 234.185 97.268C235.209 98.228 236.633 98.708 238.457 98.708C240.473 98.708 242.089 98.036 243.305 96.692C244.553 95.316 245.177 93.348 245.177 90.788V78.836H250.121V102.5H245.273V98.948H244.505C244.057 99.908 243.257 100.82 242.105 101.684C240.953 102.516 239.257 102.932 237.017 102.932ZM268.277 103.172C265.877 103.172 263.781 102.676 261.989 101.684C260.197 100.66 258.789 99.236 257.765 97.412C256.773 95.556 256.277 93.412 256.277 90.98V90.404C256.277 87.94 256.773 85.796 257.765 83.972C258.757 82.116 260.133 80.692 261.893 79.7C263.685 78.676 265.749 78.164 268.085 78.164C270.357 78.164 272.341 78.676 274.037 79.7C275.765 80.692 277.109 82.084 278.069 83.876C279.029 85.668 279.509 87.764 279.509 90.164V92.036H261.317C261.381 94.116 262.069 95.78 263.381 97.028C264.725 98.244 266.389 98.852 268.373 98.852C270.229 98.852 271.621 98.436 272.549 97.604C273.509 96.772 274.245 95.812 274.757 94.724L278.837 96.836C278.389 97.732 277.733 98.676 276.869 99.668C276.037 100.66 274.933 101.492 273.557 102.164C272.181 102.836 270.421 103.172 268.277 103.172ZM261.365 88.244H274.469C274.341 86.452 273.701 85.06 272.549 84.068C271.397 83.044 269.893 82.532 268.037 82.532C266.181 82.532 264.661 83.044 263.477 84.068C262.325 85.06 261.621 86.452 261.365 88.244ZM285.461 102.5V78.836H290.309V81.62H291.077C291.461 80.628 292.069 79.908 292.901 79.46C293.765 78.98 294.821 78.74 296.069 78.74H298.901V83.204H295.877C294.277 83.204 292.965 83.652 291.941 84.548C290.917 85.412 290.405 86.756 290.405 88.58V102.5H285.461ZM306.759 112.1V107.78H319.959C320.855 107.78 321.303 107.3 321.303 106.34V99.044H320.535C320.247 99.684 319.799 100.308 319.191 100.916C318.615 101.492 317.831 101.972 316.839 102.356C315.847 102.74 314.599 102.932 313.095 102.932C311.303 102.932 309.703 102.532 308.295 101.732C306.887 100.932 305.783 99.796 304.983 98.324C304.183 96.852 303.783 95.108 303.783 93.092V78.836H308.727V92.708C308.727 94.756 309.239 96.276 310.263 97.268C311.287 98.228 312.711 98.708 314.535 98.708C316.551 98.708 318.167 98.036 319.383 96.692C320.631 95.348 321.255 93.396 321.255 90.836V78.836H326.199V107.348C326.199 108.788 325.767 109.94 324.903 110.804C324.071 111.668 322.919 112.1 321.447 112.1H306.759ZM357.022 103.172C354.494 103.172 352.254 102.724 350.302 101.828C348.35 100.932 346.814 99.62 345.694 97.892C344.606 96.132 344.062 94.004 344.062 91.508V90.308H349.198V91.508C349.198 93.876 349.902 95.652 351.31 96.836C352.75 98.02 354.654 98.612 357.022 98.612C359.422 98.612 361.23 98.116 362.446 97.124C363.662 96.1 364.27 94.788 364.27 93.188C364.27 92.132 363.982 91.268 363.406 90.596C362.83 89.924 362.014 89.396 360.958 89.012C359.902 88.596 358.638 88.212 357.166 87.86L355.39 87.428C353.246 86.916 351.374 86.292 349.774 85.556C348.206 84.788 346.99 83.78 346.126 82.532C345.262 81.284 344.83 79.684 344.83 77.732C344.83 75.748 345.31 74.052 346.27 72.644C347.262 71.236 348.622 70.148 350.35 69.38C352.078 68.612 354.11 68.228 356.446 68.228C358.782 68.228 360.862 68.628 362.686 69.428C364.542 70.228 365.998 71.412 367.054 72.98C368.11 74.548 368.638 76.516 368.638 78.884V80.612H363.502V78.884C363.502 77.444 363.198 76.276 362.59 75.38C362.014 74.484 361.198 73.828 360.142 73.412C359.086 72.996 357.854 72.788 356.446 72.788C354.398 72.788 352.798 73.22 351.646 74.084C350.526 74.916 349.966 76.084 349.966 77.588C349.966 78.612 350.206 79.46 350.686 80.132C351.198 80.772 351.934 81.3 352.894 81.716C353.854 82.132 355.054 82.5 356.494 82.82L358.27 83.252C360.446 83.732 362.366 84.356 364.03 85.124C365.694 85.86 367.006 86.868 367.966 88.148C368.926 89.428 369.406 91.076 369.406 93.092C369.406 95.108 368.894 96.868 367.87 98.372C366.878 99.876 365.454 101.06 363.598 101.924C361.742 102.756 359.55 103.172 357.022 103.172ZM374.992 102.5V68.9H379.936V88.052H380.704L390.016 78.836H396.592L384.64 90.308L396.976 102.5H390.448L380.704 92.66H379.936V102.5H374.992ZM401.429 102.5V78.836H406.373V102.5H401.429ZM403.925 75.62C402.965 75.62 402.149 75.316 401.477 74.708C400.837 74.068 400.517 73.252 400.517 72.26C400.517 71.268 400.837 70.468 401.477 69.86C402.149 69.22 402.965 68.9 403.925 68.9C404.917 68.9 405.733 69.22 406.373 69.86C407.013 70.468 407.333 71.268 407.333 72.26C407.333 73.252 407.013 74.068 406.373 74.708C405.733 75.316 404.917 75.62 403.925 75.62ZM413.711 102.5V68.9H418.655V102.5H413.711ZM425.992 102.5V68.9H430.936V102.5H425.992Z" fill="url(#paint2_linear_1_2)"/>
<rect opacity="0.2" x="192" y="121.5" width="259" height="1" fill="white"/>
<path opacity="0.7" d="M199.045 146.955H200.977L202.597 149.085L203.023 149.653L205.438 152.864H203.506L201.915 150.733L201.517 150.193L199.045 146.955ZM206.034 144.227C206.034 145.761 205.757 147.087 205.203 148.205C204.649 149.322 203.889 150.184 202.923 150.79C201.957 151.396 200.854 151.699 199.614 151.699C198.373 151.699 197.27 151.396 196.304 150.79C195.338 150.184 194.578 149.322 194.024 148.205C193.47 147.087 193.193 145.761 193.193 144.227C193.193 142.693 193.47 141.367 194.024 140.25C194.578 139.133 195.338 138.271 196.304 137.665C197.27 137.059 198.373 136.756 199.614 136.756C200.854 136.756 201.957 137.059 202.923 137.665C203.889 138.271 204.649 139.133 205.203 140.25C205.757 141.367 206.034 142.693 206.034 144.227ZM204.33 144.227C204.33 142.968 204.119 141.905 203.697 141.038C203.281 140.172 202.715 139.516 202 139.071C201.29 138.626 200.494 138.403 199.614 138.403C198.733 138.403 197.935 138.626 197.22 139.071C196.51 139.516 195.944 140.172 195.523 141.038C195.106 141.905 194.898 142.968 194.898 144.227C194.898 145.487 195.106 146.55 195.523 147.416C195.944 148.283 196.51 148.938 197.22 149.384C197.935 149.829 198.733 150.051 199.614 150.051C200.494 150.051 201.29 149.829 202 149.384C202.715 148.938 203.281 148.283 203.697 147.416C204.119 146.55 204.33 145.487 204.33 144.227ZM215.043 147.04V140.591H216.72V151.5H215.043V149.653H214.93C214.674 150.207 214.276 150.679 213.737 151.067C213.197 151.45 212.515 151.642 211.691 151.642C211.009 151.642 210.403 151.493 209.873 151.195C209.343 150.892 208.926 150.437 208.623 149.831C208.32 149.22 208.168 148.451 208.168 147.523V140.591H209.845V147.409C209.845 148.205 210.067 148.839 210.512 149.312C210.962 149.786 211.535 150.023 212.231 150.023C212.648 150.023 213.071 149.916 213.502 149.703C213.938 149.49 214.302 149.163 214.596 148.723C214.894 148.283 215.043 147.722 215.043 147.04ZM223.763 151.727C222.712 151.727 221.806 151.495 221.043 151.031C220.286 150.562 219.701 149.909 219.289 149.071C218.882 148.228 218.678 147.248 218.678 146.131C218.678 145.013 218.882 144.028 219.289 143.176C219.701 142.319 220.274 141.652 221.008 141.173C221.746 140.69 222.608 140.449 223.593 140.449C224.161 140.449 224.722 140.544 225.276 140.733C225.83 140.922 226.334 141.23 226.789 141.656C227.244 142.078 227.606 142.636 227.876 143.332C228.146 144.028 228.28 144.885 228.28 145.903V146.614H219.871V145.165H226.576C226.576 144.549 226.453 144 226.207 143.517C225.965 143.034 225.619 142.653 225.17 142.374C224.725 142.094 224.199 141.955 223.593 141.955C222.925 141.955 222.348 142.12 221.86 142.452C221.377 142.778 221.005 143.205 220.745 143.73C220.485 144.256 220.354 144.819 220.354 145.42V146.386C220.354 147.21 220.496 147.909 220.78 148.482C221.069 149.05 221.469 149.483 221.981 149.781C222.492 150.075 223.086 150.222 223.763 150.222C224.204 150.222 224.601 150.16 224.957 150.037C225.316 149.909 225.627 149.72 225.887 149.469C226.147 149.213 226.349 148.896 226.491 148.517L228.11 148.972C227.94 149.521 227.653 150.004 227.251 150.42C226.848 150.832 226.351 151.154 225.759 151.386C225.167 151.614 224.502 151.727 223.763 151.727ZM230.23 151.5V140.591H231.85V142.239H231.963C232.162 141.699 232.522 141.261 233.043 140.925C233.564 140.589 234.151 140.42 234.804 140.42C234.927 140.42 235.081 140.423 235.266 140.428C235.45 140.432 235.59 140.439 235.685 140.449V142.153C235.628 142.139 235.498 142.118 235.294 142.089C235.095 142.056 234.885 142.04 234.662 142.04C234.132 142.04 233.658 142.151 233.242 142.374C232.83 142.591 232.503 142.894 232.261 143.283C232.025 143.666 231.906 144.104 231.906 144.597V151.5H230.23ZM238.483 155.591C238.199 155.591 237.946 155.567 237.723 155.52C237.501 155.477 237.347 155.435 237.262 155.392L237.688 153.915C238.095 154.019 238.455 154.057 238.767 154.028C239.08 154 239.357 153.86 239.598 153.609C239.844 153.363 240.069 152.963 240.273 152.409L240.585 151.557L236.551 140.591H238.37L241.381 149.284H241.495L244.506 140.591H246.324L241.693 153.091C241.485 153.654 241.227 154.121 240.919 154.49C240.611 154.864 240.254 155.141 239.847 155.321C239.444 155.501 238.99 155.591 238.483 155.591ZM256.172 151.756C255.48 151.756 254.853 151.625 254.29 151.365C253.726 151.1 253.279 150.719 252.947 150.222C252.616 149.72 252.45 149.114 252.45 148.403C252.45 147.778 252.573 147.272 252.819 146.884C253.066 146.491 253.395 146.183 253.807 145.96C254.219 145.738 254.673 145.572 255.17 145.463C255.672 145.349 256.176 145.259 256.683 145.193C257.346 145.108 257.883 145.044 258.295 145.001C258.712 144.954 259.015 144.876 259.204 144.767C259.398 144.658 259.496 144.469 259.496 144.199V144.142C259.496 143.441 259.304 142.897 258.92 142.509C258.541 142.12 257.966 141.926 257.194 141.926C256.394 141.926 255.767 142.101 255.312 142.452C254.858 142.802 254.538 143.176 254.353 143.574L252.763 143.006C253.047 142.343 253.425 141.827 253.899 141.457C254.377 141.083 254.898 140.823 255.461 140.676C256.03 140.525 256.588 140.449 257.138 140.449C257.488 140.449 257.89 140.491 258.345 140.577C258.804 140.657 259.247 140.825 259.673 141.081C260.104 141.337 260.461 141.723 260.746 142.239C261.03 142.755 261.172 143.446 261.172 144.312V151.5H259.496V150.023H259.41C259.297 150.259 259.107 150.513 258.842 150.783C258.577 151.053 258.224 151.282 257.784 151.472C257.344 151.661 256.806 151.756 256.172 151.756ZM256.427 150.25C257.09 150.25 257.649 150.12 258.103 149.859C258.563 149.599 258.908 149.263 259.14 148.851C259.377 148.439 259.496 148.006 259.496 147.551V146.017C259.425 146.102 259.268 146.18 259.027 146.251C258.79 146.318 258.515 146.377 258.203 146.429C257.895 146.476 257.594 146.519 257.301 146.557C257.012 146.59 256.778 146.618 256.598 146.642C256.162 146.699 255.755 146.791 255.376 146.919C255.002 147.042 254.699 147.229 254.467 147.48C254.24 147.726 254.126 148.062 254.126 148.489C254.126 149.071 254.342 149.511 254.773 149.81C255.208 150.103 255.76 150.25 256.427 150.25ZM265.307 144.938V151.5H263.631V140.591H265.25V142.295H265.392C265.648 141.741 266.036 141.296 266.557 140.96C267.078 140.619 267.75 140.449 268.574 140.449C269.313 140.449 269.959 140.6 270.513 140.903C271.067 141.202 271.498 141.656 271.806 142.267C272.113 142.873 272.267 143.64 272.267 144.568V151.5H270.591V144.682C270.591 143.825 270.369 143.157 269.924 142.679C269.479 142.196 268.868 141.955 268.091 141.955C267.556 141.955 267.078 142.071 266.657 142.303C266.24 142.535 265.911 142.873 265.669 143.318C265.428 143.763 265.307 144.303 265.307 144.938ZM275.419 155.591C275.135 155.591 274.882 155.567 274.659 155.52C274.437 155.477 274.283 155.435 274.198 155.392L274.624 153.915C275.031 154.019 275.391 154.057 275.703 154.028C276.016 154 276.293 153.86 276.534 153.609C276.78 153.363 277.005 152.963 277.209 152.409L277.521 151.557L273.487 140.591H275.305L278.317 149.284H278.43L281.442 140.591H283.26L278.629 153.091C278.421 153.654 278.163 154.121 277.855 154.49C277.547 154.864 277.19 155.141 276.783 155.321C276.38 155.501 275.926 155.591 275.419 155.591ZM298.079 140.591C297.994 139.871 297.648 139.312 297.042 138.915C296.436 138.517 295.693 138.318 294.812 138.318C294.168 138.318 293.605 138.422 293.122 138.631C292.644 138.839 292.27 139.125 292 139.49C291.734 139.855 291.602 140.269 291.602 140.733C291.602 141.121 291.694 141.455 291.879 141.734C292.068 142.009 292.31 142.239 292.603 142.423C292.897 142.603 293.205 142.752 293.527 142.871C293.849 142.984 294.145 143.077 294.414 143.148L295.892 143.545C296.27 143.645 296.692 143.782 297.156 143.957C297.625 144.133 298.072 144.372 298.498 144.675C298.929 144.973 299.284 145.357 299.564 145.825C299.843 146.294 299.983 146.869 299.983 147.551C299.983 148.337 299.777 149.047 299.365 149.682C298.958 150.316 298.361 150.821 297.575 151.195C296.794 151.569 295.844 151.756 294.727 151.756C293.685 151.756 292.783 151.588 292.021 151.251C291.263 150.915 290.667 150.446 290.231 149.845C289.8 149.244 289.556 148.545 289.5 147.75H291.318C291.365 148.299 291.55 148.754 291.872 149.114C292.199 149.469 292.61 149.734 293.108 149.909C293.609 150.08 294.149 150.165 294.727 150.165C295.399 150.165 296.003 150.056 296.538 149.838C297.073 149.616 297.497 149.308 297.809 148.915C298.122 148.517 298.278 148.053 298.278 147.523C298.278 147.04 298.143 146.647 297.873 146.344C297.603 146.041 297.248 145.795 296.808 145.605C296.368 145.416 295.892 145.25 295.38 145.108L293.591 144.597C292.454 144.27 291.555 143.804 290.892 143.197C290.229 142.591 289.897 141.798 289.897 140.818C289.897 140.004 290.118 139.294 290.558 138.688C291.003 138.077 291.6 137.603 292.348 137.267C293.1 136.926 293.941 136.756 294.869 136.756C295.806 136.756 296.64 136.924 297.369 137.26C298.098 137.591 298.676 138.046 299.102 138.624C299.533 139.201 299.76 139.857 299.784 140.591H298.079ZM306.625 151.727C305.574 151.727 304.667 151.495 303.905 151.031C303.147 150.562 302.563 149.909 302.151 149.071C301.744 148.228 301.54 147.248 301.54 146.131C301.54 145.013 301.744 144.028 302.151 143.176C302.563 142.319 303.136 141.652 303.869 141.173C304.608 140.69 305.47 140.449 306.455 140.449C307.023 140.449 307.584 140.544 308.138 140.733C308.692 140.922 309.196 141.23 309.651 141.656C310.105 142.078 310.467 142.636 310.737 143.332C311.007 144.028 311.142 144.885 311.142 145.903V146.614H302.733V145.165H309.438C309.438 144.549 309.315 144 309.068 143.517C308.827 143.034 308.481 142.653 308.031 142.374C307.586 142.094 307.061 141.955 306.455 141.955C305.787 141.955 305.209 142.12 304.722 142.452C304.239 142.778 303.867 143.205 303.607 143.73C303.346 144.256 303.216 144.819 303.216 145.42V146.386C303.216 147.21 303.358 147.909 303.642 148.482C303.931 149.05 304.331 149.483 304.842 149.781C305.354 150.075 305.948 150.222 306.625 150.222C307.065 150.222 307.463 150.16 307.818 150.037C308.178 149.909 308.488 149.72 308.749 149.469C309.009 149.213 309.21 148.896 309.352 148.517L310.972 148.972C310.801 149.521 310.515 150.004 310.112 150.42C309.71 150.832 309.213 151.154 308.621 151.386C308.029 151.614 307.364 151.727 306.625 151.727ZM313.092 151.5V140.591H314.711V142.239H314.825C315.024 141.699 315.384 141.261 315.904 140.925C316.425 140.589 317.012 140.42 317.666 140.42C317.789 140.42 317.943 140.423 318.127 140.428C318.312 140.432 318.452 140.439 318.546 140.449V142.153C318.49 142.139 318.359 142.118 318.156 142.089C317.957 142.056 317.746 142.04 317.524 142.04C316.993 142.04 316.52 142.151 316.103 142.374C315.691 142.591 315.365 142.894 315.123 143.283C314.886 143.666 314.768 144.104 314.768 144.597V151.5H313.092ZM329.186 140.591L325.152 151.5H323.447L319.413 140.591H321.231L324.243 149.284H324.356L327.368 140.591H329.186ZM330.798 151.5V140.591H332.474V151.5H330.798ZM331.65 138.773C331.324 138.773 331.042 138.661 330.805 138.439C330.573 138.216 330.457 137.949 330.457 137.636C330.457 137.324 330.573 137.056 330.805 136.834C331.042 136.611 331.324 136.5 331.65 136.5C331.977 136.5 332.256 136.611 332.489 136.834C332.725 137.056 332.844 137.324 332.844 137.636C332.844 137.949 332.725 138.216 332.489 138.439C332.256 138.661 331.977 138.773 331.65 138.773ZM339.376 151.727C338.353 151.727 337.473 151.486 336.734 151.003C335.995 150.52 335.427 149.855 335.029 149.007C334.632 148.16 334.433 147.191 334.433 146.102C334.433 144.994 334.636 144.017 335.044 143.169C335.456 142.317 336.029 141.652 336.762 141.173C337.501 140.69 338.363 140.449 339.348 140.449C340.115 140.449 340.806 140.591 341.422 140.875C342.037 141.159 342.541 141.557 342.934 142.068C343.327 142.58 343.571 143.176 343.666 143.858H341.99C341.862 143.361 341.578 142.92 341.137 142.537C340.702 142.149 340.115 141.955 339.376 141.955C338.723 141.955 338.15 142.125 337.657 142.466C337.17 142.802 336.788 143.278 336.514 143.893C336.244 144.504 336.109 145.222 336.109 146.045C336.109 146.888 336.242 147.622 336.507 148.247C336.777 148.872 337.155 149.357 337.643 149.703C338.136 150.049 338.713 150.222 339.376 150.222C339.812 150.222 340.207 150.146 340.562 149.994C340.917 149.843 341.218 149.625 341.464 149.341C341.71 149.057 341.886 148.716 341.99 148.318H343.666C343.571 148.962 343.337 149.542 342.963 150.058C342.593 150.57 342.103 150.977 341.493 151.28C340.886 151.578 340.181 151.727 339.376 151.727ZM350.09 151.727C349.039 151.727 348.132 151.495 347.37 151.031C346.612 150.562 346.027 149.909 345.616 149.071C345.208 148.228 345.005 147.248 345.005 146.131C345.005 145.013 345.208 144.028 345.616 143.176C346.027 142.319 346.6 141.652 347.334 141.173C348.073 140.69 348.935 140.449 349.92 140.449C350.488 140.449 351.049 140.544 351.603 140.733C352.157 140.922 352.661 141.23 353.116 141.656C353.57 142.078 353.932 142.636 354.202 143.332C354.472 144.028 354.607 144.885 354.607 145.903V146.614H346.198V145.165H352.902C352.902 144.549 352.779 144 352.533 143.517C352.292 143.034 351.946 142.653 351.496 142.374C351.051 142.094 350.526 141.955 349.92 141.955C349.252 141.955 348.674 142.12 348.187 142.452C347.704 142.778 347.332 143.205 347.072 143.73C346.811 144.256 346.681 144.819 346.681 145.42V146.386C346.681 147.21 346.823 147.909 347.107 148.482C347.396 149.05 347.796 149.483 348.307 149.781C348.819 150.075 349.413 150.222 350.09 150.222C350.53 150.222 350.928 150.16 351.283 150.037C351.643 149.909 351.953 149.72 352.214 149.469C352.474 149.213 352.675 148.896 352.817 148.517L354.437 148.972C354.266 149.521 353.98 150.004 353.577 150.42C353.175 150.832 352.678 151.154 352.086 151.386C351.494 151.614 350.829 151.727 350.09 151.727ZM368.318 136.955V151.5H366.614L358.687 140.08H358.545V151.5H356.784V136.955H358.489L366.443 148.403H366.585V136.955H368.318ZM375.447 151.727C374.462 151.727 373.598 151.493 372.855 151.024C372.116 150.555 371.539 149.9 371.122 149.057C370.71 148.214 370.504 147.229 370.504 146.102C370.504 144.966 370.71 143.974 371.122 143.126C371.539 142.279 372.116 141.621 372.855 141.152C373.598 140.683 374.462 140.449 375.447 140.449C376.432 140.449 377.294 140.683 378.032 141.152C378.776 141.621 379.353 142.279 379.765 143.126C380.182 143.974 380.39 144.966 380.39 146.102C380.39 147.229 380.182 148.214 379.765 149.057C379.353 149.9 378.776 150.555 378.032 151.024C377.294 151.493 376.432 151.727 375.447 151.727ZM375.447 150.222C376.195 150.222 376.811 150.03 377.294 149.646C377.777 149.263 378.134 148.759 378.366 148.134C378.598 147.509 378.714 146.831 378.714 146.102C378.714 145.373 378.598 144.694 378.366 144.064C378.134 143.434 377.777 142.925 377.294 142.537C376.811 142.149 376.195 141.955 375.447 141.955C374.699 141.955 374.084 142.149 373.601 142.537C373.118 142.925 372.76 143.434 372.528 144.064C372.296 144.694 372.18 145.373 372.18 146.102C372.18 146.831 372.296 147.509 372.528 148.134C372.76 148.759 373.118 149.263 373.601 149.646C374.084 150.03 374.699 150.222 375.447 150.222ZM384.449 151.5L381.126 140.591H382.887L385.245 148.943H385.359L387.688 140.591H389.478L391.779 148.915H391.893L394.251 140.591H396.012L392.688 151.5H391.04L388.654 143.119H388.484L386.097 151.5H384.449ZM407.397 140.591V142.011H401.744V140.591H407.397ZM403.391 137.977H405.068V148.375C405.068 148.848 405.136 149.204 405.274 149.44C405.416 149.672 405.596 149.829 405.813 149.909C406.036 149.985 406.27 150.023 406.516 150.023C406.701 150.023 406.853 150.013 406.971 149.994C407.089 149.971 407.184 149.952 407.255 149.938L407.596 151.443C407.482 151.486 407.324 151.528 407.12 151.571C406.917 151.618 406.659 151.642 406.346 151.642C405.873 151.642 405.409 151.54 404.954 151.337C404.504 151.133 404.13 150.823 403.832 150.406C403.538 149.99 403.391 149.464 403.391 148.83V137.977ZM412.529 151.756C411.837 151.756 411.21 151.625 410.647 151.365C410.083 151.1 409.636 150.719 409.304 150.222C408.973 149.72 408.807 149.114 408.807 148.403C408.807 147.778 408.93 147.272 409.176 146.884C409.423 146.491 409.752 146.183 410.164 145.96C410.576 145.738 411.03 145.572 411.527 145.463C412.029 145.349 412.533 145.259 413.04 145.193C413.703 145.108 414.24 145.044 414.652 145.001C415.069 144.954 415.372 144.876 415.561 144.767C415.755 144.658 415.853 144.469 415.853 144.199V144.142C415.853 143.441 415.661 142.897 415.277 142.509C414.898 142.12 414.323 141.926 413.551 141.926C412.751 141.926 412.124 142.101 411.669 142.452C411.215 142.802 410.895 143.176 410.711 143.574L409.12 143.006C409.404 142.343 409.782 141.827 410.256 141.457C410.734 141.083 411.255 140.823 411.818 140.676C412.387 140.525 412.945 140.449 413.495 140.449C413.845 140.449 414.247 140.491 414.702 140.577C415.161 140.657 415.604 140.825 416.03 141.081C416.461 141.337 416.818 141.723 417.103 142.239C417.387 142.755 417.529 143.446 417.529 144.312V151.5H415.853V150.023H415.767C415.654 150.259 415.464 150.513 415.199 150.783C414.934 151.053 414.581 151.282 414.141 151.472C413.701 151.661 413.163 151.756 412.529 151.756ZM412.784 150.25C413.447 150.25 414.006 150.12 414.461 149.859C414.92 149.599 415.265 149.263 415.497 148.851C415.734 148.439 415.853 148.006 415.853 147.551V146.017C415.782 146.102 415.625 146.18 415.384 146.251C415.147 146.318 414.872 146.377 414.56 146.429C414.252 146.476 413.952 146.519 413.658 146.557C413.369 146.59 413.135 146.618 412.955 146.642C412.519 146.699 412.112 146.791 411.733 146.919C411.359 147.042 411.056 147.229 410.824 147.48C410.597 147.726 410.483 148.062 410.483 148.489C410.483 149.071 410.699 149.511 411.13 149.81C411.565 150.103 412.117 150.25 412.784 150.25ZM420.215 151.5V136.955H421.891V142.324H422.033C422.157 142.134 422.327 141.893 422.545 141.599C422.767 141.301 423.085 141.036 423.497 140.804C423.913 140.567 424.477 140.449 425.187 140.449C426.105 140.449 426.915 140.679 427.616 141.138C428.317 141.597 428.863 142.248 429.256 143.091C429.649 143.934 429.846 144.928 429.846 146.074C429.846 147.229 429.649 148.231 429.256 149.078C428.863 149.921 428.319 150.574 427.623 151.038C426.927 151.498 426.124 151.727 425.215 151.727C424.515 151.727 423.953 151.611 423.532 151.379C423.111 151.143 422.786 150.875 422.559 150.577C422.332 150.274 422.157 150.023 422.033 149.824H421.835V151.5H420.215ZM421.863 146.045C421.863 146.869 421.984 147.596 422.225 148.226C422.467 148.851 422.819 149.341 423.283 149.696C423.747 150.046 424.316 150.222 424.988 150.222C425.689 150.222 426.274 150.037 426.742 149.668C427.216 149.294 427.571 148.792 427.808 148.162C428.049 147.527 428.17 146.822 428.17 146.045C428.17 145.278 428.051 144.587 427.815 143.972C427.583 143.351 427.23 142.861 426.756 142.501C426.288 142.137 425.698 141.955 424.988 141.955C424.306 141.955 423.733 142.127 423.269 142.473C422.805 142.814 422.455 143.292 422.218 143.908C421.981 144.518 421.863 145.231 421.863 146.045ZM433.486 136.955V151.5H431.81V136.955H433.486ZM440.53 151.727C439.479 151.727 438.572 151.495 437.81 151.031C437.052 150.562 436.467 149.909 436.055 149.071C435.648 148.228 435.445 147.248 435.445 146.131C435.445 145.013 435.648 144.028 436.055 143.176C436.467 142.319 437.04 141.652 437.774 141.173C438.513 140.69 439.375 140.449 440.359 140.449C440.928 140.449 441.489 140.544 442.043 140.733C442.597 140.922 443.101 141.23 443.555 141.656C444.01 142.078 444.372 142.636 444.642 143.332C444.912 144.028 445.047 144.885 445.047 145.903V146.614H436.638V145.165H443.342C443.342 144.549 443.219 144 442.973 143.517C442.732 143.034 442.386 142.653 441.936 142.374C441.491 142.094 440.965 141.955 440.359 141.955C439.692 141.955 439.114 142.12 438.626 142.452C438.143 142.778 437.772 143.205 437.511 143.73C437.251 144.256 437.121 144.819 437.121 145.42V146.386C437.121 147.21 437.263 147.909 437.547 148.482C437.836 149.05 438.236 149.483 438.747 149.781C439.259 150.075 439.853 150.222 440.53 150.222C440.97 150.222 441.368 150.16 441.723 150.037C442.083 149.909 442.393 149.72 442.653 149.469C442.914 149.213 443.115 148.896 443.257 148.517L444.876 148.972C444.706 149.521 444.42 150.004 444.017 150.42C443.615 150.832 443.117 151.154 442.526 151.386C441.934 151.614 441.268 151.727 440.53 151.727ZM458.272 144.483V146.045H451.908V144.483H458.272ZM469.765 151.727C468.856 151.727 468.053 151.498 467.357 151.038C466.661 150.574 466.117 149.921 465.724 149.078C465.331 148.231 465.134 147.229 465.134 146.074C465.134 144.928 465.331 143.934 465.724 143.091C466.117 142.248 466.664 141.597 467.365 141.138C468.065 140.679 468.875 140.449 469.794 140.449C470.504 140.449 471.065 140.567 471.477 140.804C471.893 141.036 472.211 141.301 472.428 141.599C472.651 141.893 472.824 142.134 472.947 142.324H473.089V136.955H474.765V151.5H473.146V149.824H472.947C472.824 150.023 472.649 150.274 472.421 150.577C472.194 150.875 471.87 151.143 471.448 151.379C471.027 151.611 470.466 151.727 469.765 151.727ZM469.992 150.222C470.665 150.222 471.233 150.046 471.697 149.696C472.161 149.341 472.514 148.851 472.755 148.226C472.997 147.596 473.117 146.869 473.117 146.045C473.117 145.231 472.999 144.518 472.762 143.908C472.526 143.292 472.175 142.814 471.711 142.473C471.247 142.127 470.674 141.955 469.992 141.955C469.282 141.955 468.69 142.137 468.217 142.501C467.748 142.861 467.395 143.351 467.159 143.972C466.927 144.587 466.811 145.278 466.811 146.045C466.811 146.822 466.929 147.527 467.166 148.162C467.407 148.792 467.762 149.294 468.231 149.668C468.705 150.037 469.292 150.222 469.992 150.222ZM477.468 151.5V140.591H479.144V151.5H477.468ZM478.32 138.773C477.993 138.773 477.712 138.661 477.475 138.439C477.243 138.216 477.127 137.949 477.127 137.636C477.127 137.324 477.243 137.056 477.475 136.834C477.712 136.611 477.993 136.5 478.32 136.5C478.647 136.5 478.926 136.611 479.158 136.834C479.395 137.056 479.513 137.324 479.513 137.636C479.513 137.949 479.395 138.216 479.158 138.439C478.926 138.661 478.647 138.773 478.32 138.773ZM481.614 151.5V140.591H483.233V142.239H483.347C483.546 141.699 483.905 141.261 484.426 140.925C484.947 140.589 485.534 140.42 486.188 140.42C486.311 140.42 486.465 140.423 486.649 140.428C486.834 140.432 486.974 140.439 487.068 140.449V142.153C487.011 142.139 486.881 142.118 486.678 142.089C486.479 142.056 486.268 142.04 486.046 142.04C485.515 142.04 485.042 142.151 484.625 142.374C484.213 142.591 483.886 142.894 483.645 143.283C483.408 143.666 483.29 144.104 483.29 144.597V151.5H481.614ZM492.697 151.727C491.646 151.727 490.739 151.495 489.977 151.031C489.219 150.562 488.635 149.909 488.223 149.071C487.815 148.228 487.612 147.248 487.612 146.131C487.612 145.013 487.815 144.028 488.223 143.176C488.635 142.319 489.207 141.652 489.941 141.173C490.68 140.69 491.542 140.449 492.527 140.449C493.095 140.449 493.656 140.544 494.21 140.733C494.764 140.922 495.268 141.23 495.723 141.656C496.177 142.078 496.539 142.636 496.809 143.332C497.079 144.028 497.214 144.885 497.214 145.903V146.614H488.805V145.165H495.51C495.51 144.549 495.386 144 495.14 143.517C494.899 143.034 494.553 142.653 494.103 142.374C493.658 142.094 493.133 141.955 492.527 141.955C491.859 141.955 491.281 142.12 490.794 142.452C490.311 142.778 489.939 143.205 489.679 143.73C489.418 144.256 489.288 144.819 489.288 145.42V146.386C489.288 147.21 489.43 147.909 489.714 148.482C490.003 149.05 490.403 149.483 490.914 149.781C491.426 150.075 492.02 150.222 492.697 150.222C493.137 150.222 493.535 150.16 493.89 150.037C494.25 149.909 494.56 149.72 494.821 149.469C495.081 149.213 495.282 148.896 495.424 148.517L497.044 148.972C496.873 149.521 496.587 150.004 496.184 150.42C495.782 150.832 495.285 151.154 494.693 151.386C494.101 151.614 493.436 151.727 492.697 151.727ZM503.596 151.727C502.573 151.727 501.692 151.486 500.954 151.003C500.215 150.52 499.647 149.855 499.249 149.007C498.851 148.16 498.652 147.191 498.652 146.102C498.652 144.994 498.856 144.017 499.263 143.169C499.675 142.317 500.248 141.652 500.982 141.173C501.721 140.69 502.582 140.449 503.567 140.449C504.334 140.449 505.026 140.591 505.641 140.875C506.257 141.159 506.761 141.557 507.154 142.068C507.547 142.58 507.791 143.176 507.885 143.858H506.209C506.081 143.361 505.797 142.92 505.357 142.537C504.921 142.149 504.334 141.955 503.596 141.955C502.942 141.955 502.369 142.125 501.877 142.466C501.389 142.802 501.008 143.278 500.733 143.893C500.464 144.504 500.329 145.222 500.329 146.045C500.329 146.888 500.461 147.622 500.726 148.247C500.996 148.872 501.375 149.357 501.863 149.703C502.355 150.049 502.933 150.222 503.596 150.222C504.031 150.222 504.427 150.146 504.782 149.994C505.137 149.843 505.437 149.625 505.684 149.341C505.93 149.057 506.105 148.716 506.209 148.318H507.885C507.791 148.962 507.556 149.542 507.182 150.058C506.813 150.57 506.323 150.977 505.712 151.28C505.106 151.578 504.401 151.727 503.596 151.727ZM514.48 140.591V142.011H508.827V140.591H514.48ZM510.474 137.977H512.15V148.375C512.15 148.848 512.219 149.204 512.356 149.44C512.498 149.672 512.678 149.829 512.896 149.909C513.119 149.985 513.353 150.023 513.599 150.023C513.784 150.023 513.935 150.013 514.054 149.994C514.172 149.971 514.267 149.952 514.338 149.938L514.679 151.443C514.565 151.486 514.407 151.528 514.203 151.571C513.999 151.618 513.741 151.642 513.429 151.642C512.955 151.642 512.491 151.54 512.037 151.337C511.587 151.133 511.213 150.823 510.915 150.406C510.621 149.99 510.474 149.464 510.474 148.83V137.977ZM518.312 136.955V151.5H516.636V136.955H518.312ZM521.861 155.591C521.577 155.591 521.324 155.567 521.101 155.52C520.879 155.477 520.725 155.435 520.64 155.392L521.066 153.915C521.473 154.019 521.833 154.057 522.145 154.028C522.458 154 522.735 153.86 522.976 153.609C523.223 153.363 523.447 152.963 523.651 152.409L523.964 151.557L519.929 140.591H521.748L524.759 149.284H524.873L527.884 140.591H529.702L525.072 153.091C524.863 153.654 524.605 154.121 524.297 154.49C523.99 154.864 523.632 155.141 523.225 155.321C522.822 155.501 522.368 155.591 521.861 155.591ZM536.34 151.5V140.591H538.016V151.5H536.34ZM537.192 138.773C536.865 138.773 536.583 138.661 536.347 138.439C536.115 138.216 535.999 137.949 535.999 137.636C535.999 137.324 536.115 137.056 536.347 136.834C536.583 136.611 536.865 136.5 537.192 136.5C537.519 136.5 537.798 136.611 538.03 136.834C538.267 137.056 538.385 137.324 538.385 137.636C538.385 137.949 538.267 138.216 538.03 138.439C537.798 138.661 537.519 138.773 537.192 138.773ZM542.162 144.938V151.5H540.486V140.591H542.105V142.295H542.247C542.503 141.741 542.891 141.296 543.412 140.96C543.933 140.619 544.605 140.449 545.429 140.449C546.167 140.449 546.814 140.6 547.368 140.903C547.922 141.202 548.353 141.656 548.66 142.267C548.968 142.873 549.122 143.64 549.122 144.568V151.5H547.446V144.682C547.446 143.825 547.223 143.157 546.778 142.679C546.333 142.196 545.722 141.955 544.946 141.955C544.411 141.955 543.933 142.071 543.511 142.303C543.095 142.535 542.765 142.873 542.524 143.318C542.283 143.763 542.162 144.303 542.162 144.938ZM559.312 143.034L557.806 143.46C557.712 143.209 557.572 142.965 557.387 142.729C557.208 142.487 556.961 142.288 556.649 142.132C556.336 141.976 555.936 141.898 555.449 141.898C554.781 141.898 554.225 142.052 553.779 142.359C553.339 142.662 553.119 143.048 553.119 143.517C553.119 143.934 553.27 144.263 553.574 144.504C553.877 144.746 554.35 144.947 554.994 145.108L556.613 145.506C557.589 145.742 558.315 146.105 558.794 146.592C559.272 147.075 559.511 147.698 559.511 148.46C559.511 149.085 559.331 149.644 558.971 150.136C558.616 150.629 558.119 151.017 557.48 151.301C556.841 151.585 556.097 151.727 555.25 151.727C554.137 151.727 553.216 151.486 552.487 151.003C551.758 150.52 551.296 149.814 551.102 148.886L552.693 148.489C552.844 149.076 553.131 149.516 553.552 149.81C553.978 150.103 554.535 150.25 555.221 150.25C556.002 150.25 556.623 150.084 557.082 149.753C557.546 149.417 557.778 149.014 557.778 148.545C557.778 148.167 557.645 147.849 557.38 147.594C557.115 147.333 556.708 147.139 556.159 147.011L554.341 146.585C553.342 146.348 552.608 145.982 552.139 145.484C551.675 144.982 551.443 144.355 551.443 143.602C551.443 142.987 551.616 142.442 551.961 141.969C552.312 141.495 552.788 141.124 553.389 140.854C553.995 140.584 554.681 140.449 555.449 140.449C556.528 140.449 557.376 140.686 557.991 141.159C558.611 141.633 559.052 142.258 559.312 143.034ZM561.434 151.5V140.591H563.11V151.5H561.434ZM562.286 138.773C561.96 138.773 561.678 138.661 561.441 138.439C561.209 138.216 561.093 137.949 561.093 137.636C561.093 137.324 561.209 137.056 561.441 136.834C561.678 136.611 561.96 136.5 562.286 136.5C562.613 136.5 562.892 136.611 563.124 136.834C563.361 137.056 563.48 137.324 563.48 137.636C563.48 137.949 563.361 138.216 563.124 138.439C562.892 138.661 562.613 138.773 562.286 138.773ZM569.699 151.727C568.79 151.727 567.988 151.498 567.292 151.038C566.596 150.574 566.051 149.921 565.658 149.078C565.265 148.231 565.069 147.229 565.069 146.074C565.069 144.928 565.265 143.934 565.658 143.091C566.051 142.248 566.598 141.597 567.299 141.138C568 140.679 568.809 140.449 569.728 140.449C570.438 140.449 570.999 140.567 571.411 140.804C571.828 141.036 572.145 141.301 572.363 141.599C572.585 141.893 572.758 142.134 572.881 142.324H573.023V136.955H574.699V151.5H573.08V149.824H572.881C572.758 150.023 572.583 150.274 572.356 150.577C572.128 150.875 571.804 151.143 571.383 151.379C570.961 151.611 570.4 151.727 569.699 151.727ZM569.927 150.222C570.599 150.222 571.167 150.046 571.631 149.696C572.095 149.341 572.448 148.851 572.69 148.226C572.931 147.596 573.052 146.869 573.052 146.045C573.052 145.231 572.933 144.518 572.697 143.908C572.46 143.292 572.11 142.814 571.646 142.473C571.181 142.127 570.609 141.955 569.927 141.955C569.217 141.955 568.625 142.137 568.151 142.501C567.682 142.861 567.33 143.351 567.093 143.972C566.861 144.587 566.745 145.278 566.745 146.045C566.745 146.822 566.863 147.527 567.1 148.162C567.342 148.792 567.697 149.294 568.165 149.668C568.639 150.037 569.226 150.222 569.927 150.222ZM581.976 151.727C580.925 151.727 580.018 151.495 579.256 151.031C578.498 150.562 577.913 149.909 577.502 149.071C577.094 148.228 576.891 147.248 576.891 146.131C576.891 145.013 577.094 144.028 577.502 143.176C577.913 142.319 578.486 141.652 579.22 141.173C579.959 140.69 580.821 140.449 581.805 140.449C582.374 140.449 582.935 140.544 583.489 140.733C584.043 140.922 584.547 141.23 585.002 141.656C585.456 142.078 585.818 142.636 586.088 143.332C586.358 144.028 586.493 144.885 586.493 145.903V146.614H578.084V145.165H584.788C584.788 144.549 584.665 144 584.419 143.517C584.178 143.034 583.832 142.653 583.382 142.374C582.937 142.094 582.412 141.955 581.805 141.955C581.138 141.955 580.56 142.12 580.073 142.452C579.59 142.778 579.218 143.205 578.957 143.73C578.697 144.256 578.567 144.819 578.567 145.42V146.386C578.567 147.21 578.709 147.909 578.993 148.482C579.282 149.05 579.682 149.483 580.193 149.781C580.705 150.075 581.299 150.222 581.976 150.222C582.416 150.222 582.814 150.16 583.169 150.037C583.529 149.909 583.839 149.72 584.1 149.469C584.36 149.213 584.561 148.896 584.703 148.517L586.323 148.972C586.152 149.521 585.866 150.004 585.463 150.42C585.061 150.832 584.564 151.154 583.972 151.386C583.38 151.614 582.715 151.727 581.976 151.727ZM605.4 141.5H603.638C603.534 140.993 603.352 140.548 603.091 140.165C602.836 139.781 602.523 139.459 602.154 139.199C601.789 138.934 601.384 138.735 600.939 138.602C600.494 138.47 600.03 138.403 599.547 138.403C598.667 138.403 597.869 138.626 597.154 139.071C596.444 139.516 595.878 140.172 595.456 141.038C595.04 141.905 594.831 142.968 594.831 144.227C594.831 145.487 595.04 146.55 595.456 147.416C595.878 148.283 596.444 148.938 597.154 149.384C597.869 149.829 598.667 150.051 599.547 150.051C600.03 150.051 600.494 149.985 600.939 149.852C601.384 149.72 601.789 149.523 602.154 149.263C602.523 148.998 602.836 148.673 603.091 148.29C603.352 147.902 603.534 147.456 603.638 146.955H605.4C605.267 147.698 605.025 148.363 604.675 148.95C604.325 149.537 603.889 150.037 603.368 150.449C602.847 150.856 602.263 151.166 601.614 151.379C600.97 151.592 600.281 151.699 599.547 151.699C598.307 151.699 597.203 151.396 596.238 150.79C595.272 150.184 594.512 149.322 593.958 148.205C593.404 147.087 593.127 145.761 593.127 144.227C593.127 142.693 593.404 141.367 593.958 140.25C594.512 139.133 595.272 138.271 596.238 137.665C597.203 137.059 598.307 136.756 599.547 136.756C600.281 136.756 600.97 136.862 601.614 137.075C602.263 137.288 602.847 137.601 603.368 138.013C603.889 138.42 604.325 138.917 604.675 139.504C605.025 140.087 605.267 140.752 605.4 141.5ZM609.095 136.955V151.5H607.418V136.955H609.095ZM614.775 151.756C614.083 151.756 613.456 151.625 612.893 151.365C612.329 151.1 611.882 150.719 611.55 150.222C611.219 149.72 611.053 149.114 611.053 148.403C611.053 147.778 611.176 147.272 611.423 146.884C611.669 146.491 611.998 146.183 612.41 145.96C612.822 145.738 613.276 145.572 613.773 145.463C614.275 145.349 614.78 145.259 615.286 145.193C615.949 145.108 616.486 145.044 616.898 145.001C617.315 144.954 617.618 144.876 617.807 144.767C618.002 144.658 618.099 144.469 618.099 144.199V144.142C618.099 143.441 617.907 142.897 617.523 142.509C617.145 142.12 616.569 141.926 615.798 141.926C614.997 141.926 614.37 142.101 613.915 142.452C613.461 142.802 613.141 143.176 612.957 143.574L611.366 143.006C611.65 142.343 612.029 141.827 612.502 141.457C612.98 141.083 613.501 140.823 614.065 140.676C614.633 140.525 615.191 140.449 615.741 140.449C616.091 140.449 616.494 140.491 616.948 140.577C617.407 140.657 617.85 140.825 618.276 141.081C618.707 141.337 619.065 141.723 619.349 142.239C619.633 142.755 619.775 143.446 619.775 144.312V151.5H618.099V150.023H618.013C617.9 150.259 617.71 150.513 617.445 150.783C617.18 151.053 616.827 151.282 616.387 151.472C615.947 151.661 615.409 151.756 614.775 151.756ZM615.03 150.25C615.693 150.25 616.252 150.12 616.707 149.859C617.166 149.599 617.512 149.263 617.744 148.851C617.98 148.439 618.099 148.006 618.099 147.551V146.017C618.028 146.102 617.871 146.18 617.63 146.251C617.393 146.318 617.119 146.377 616.806 146.429C616.498 146.476 616.198 146.519 615.904 146.557C615.615 146.59 615.381 146.618 615.201 146.642C614.765 146.699 614.358 146.791 613.979 146.919C613.605 147.042 613.302 147.229 613.07 147.48C612.843 147.726 612.729 148.062 612.729 148.489C612.729 149.071 612.945 149.511 613.376 149.81C613.811 150.103 614.363 150.25 615.03 150.25ZM629.109 147.04V140.591H630.785V151.5H629.109V149.653H628.995C628.74 150.207 628.342 150.679 627.802 151.067C627.263 151.45 626.581 151.642 625.757 151.642C625.075 151.642 624.469 151.493 623.939 151.195C623.408 150.892 622.992 150.437 622.689 149.831C622.386 149.22 622.234 148.451 622.234 147.523V140.591H623.91V147.409C623.91 148.205 624.133 148.839 624.578 149.312C625.028 149.786 625.601 150.023 626.297 150.023C626.713 150.023 627.137 149.916 627.568 149.703C628.004 149.49 628.368 149.163 628.662 148.723C628.96 148.283 629.109 147.722 629.109 147.04ZM637.375 151.727C636.465 151.727 635.663 151.498 634.967 151.038C634.271 150.574 633.726 149.921 633.333 149.078C632.94 148.231 632.744 147.229 632.744 146.074C632.744 144.928 632.94 143.934 633.333 143.091C633.726 142.248 634.273 141.597 634.974 141.138C635.675 140.679 636.484 140.449 637.403 140.449C638.113 140.449 638.674 140.567 639.086 140.804C639.503 141.036 639.82 141.301 640.038 141.599C640.26 141.893 640.433 142.134 640.556 142.324H640.698V136.955H642.375V151.5H640.755V149.824H640.556C640.433 150.023 640.258 150.274 640.031 150.577C639.803 150.875 639.479 151.143 639.058 151.379C638.636 151.611 638.075 151.727 637.375 151.727ZM637.602 150.222C638.274 150.222 638.842 150.046 639.306 149.696C639.77 149.341 640.123 148.851 640.365 148.226C640.606 147.596 640.727 146.869 640.727 146.045C640.727 145.231 640.608 144.518 640.372 143.908C640.135 143.292 639.785 142.814 639.321 142.473C638.857 142.127 638.284 141.955 637.602 141.955C636.892 141.955 636.3 142.137 635.826 142.501C635.357 142.861 635.005 143.351 634.768 143.972C634.536 144.587 634.42 145.278 634.42 146.045C634.42 146.822 634.538 147.527 634.775 148.162C635.017 148.792 635.372 149.294 635.84 149.668C636.314 150.037 636.901 150.222 637.602 150.222ZM649.651 151.727C648.6 151.727 647.693 151.495 646.931 151.031C646.173 150.562 645.588 149.909 645.176 149.071C644.769 148.228 644.566 147.248 644.566 146.131C644.566 145.013 644.769 144.028 645.176 143.176C645.588 142.319 646.161 141.652 646.895 141.173C647.634 140.69 648.496 140.449 649.48 140.449C650.049 140.449 650.61 140.544 651.164 140.733C651.718 140.922 652.222 141.23 652.676 141.656C653.131 142.078 653.493 142.636 653.763 143.332C654.033 144.028 654.168 144.885 654.168 145.903V146.614H645.759V145.165H652.463C652.463 144.549 652.34 144 652.094 143.517C651.853 143.034 651.507 142.653 651.057 142.374C650.612 142.094 650.087 141.955 649.48 141.955C648.813 141.955 648.235 142.12 647.748 142.452C647.265 142.778 646.893 143.205 646.632 143.73C646.372 144.256 646.242 144.819 646.242 145.42V146.386C646.242 147.21 646.384 147.909 646.668 148.482C646.957 149.05 647.357 149.483 647.868 149.781C648.38 150.075 648.974 150.222 649.651 150.222C650.091 150.222 650.489 150.16 650.844 150.037C651.204 149.909 651.514 149.72 651.775 149.469C652.035 149.213 652.236 148.896 652.378 148.517L653.998 148.972C653.827 149.521 653.541 150.004 653.138 150.42C652.736 150.832 652.239 151.154 651.647 151.386C651.055 151.614 650.39 151.727 649.651 151.727ZM673.074 141.5H671.313C671.209 140.993 671.027 140.548 670.766 140.165C670.511 139.781 670.198 139.459 669.829 139.199C669.464 138.934 669.059 138.735 668.614 138.602C668.169 138.47 667.705 138.403 667.222 138.403C666.342 138.403 665.544 138.626 664.829 139.071C664.119 139.516 663.553 140.172 663.131 141.038C662.715 141.905 662.506 142.968 662.506 144.227C662.506 145.487 662.715 146.55 663.131 147.416C663.553 148.283 664.119 148.938 664.829 149.384C665.544 149.829 666.342 150.051 667.222 150.051C667.705 150.051 668.169 149.985 668.614 149.852C669.059 149.72 669.464 149.523 669.829 149.263C670.198 148.998 670.511 148.673 670.766 148.29C671.027 147.902 671.209 147.456 671.313 146.955H673.074C672.942 147.698 672.7 148.363 672.35 148.95C672 149.537 671.564 150.037 671.043 150.449C670.522 150.856 669.938 151.166 669.289 151.379C668.645 151.592 667.956 151.699 667.222 151.699C665.982 151.699 664.878 151.396 663.913 150.79C662.947 150.184 662.187 149.322 661.633 148.205C661.079 147.087 660.802 145.761 660.802 144.227C660.802 142.693 661.079 141.367 661.633 140.25C662.187 139.133 662.947 138.271 663.913 137.665C664.878 137.059 665.982 136.756 667.222 136.756C667.956 136.756 668.645 136.862 669.289 137.075C669.938 137.288 670.522 137.601 671.043 138.013C671.564 138.42 672 138.917 672.35 139.504C672.7 140.087 672.942 140.752 673.074 141.5ZM679.525 151.727C678.54 151.727 677.676 151.493 676.933 151.024C676.194 150.555 675.617 149.9 675.2 149.057C674.788 148.214 674.582 147.229 674.582 146.102C674.582 144.966 674.788 143.974 675.2 143.126C675.617 142.279 676.194 141.621 676.933 141.152C677.676 140.683 678.54 140.449 679.525 140.449C680.51 140.449 681.372 140.683 682.111 141.152C682.854 141.621 683.432 142.279 683.843 143.126C684.26 143.974 684.468 144.966 684.468 146.102C684.468 147.229 684.26 148.214 683.843 149.057C683.432 149.9 682.854 150.555 682.111 151.024C681.372 151.493 680.51 151.727 679.525 151.727ZM679.525 150.222C680.273 150.222 680.889 150.03 681.372 149.646C681.855 149.263 682.212 148.759 682.444 148.134C682.676 147.509 682.792 146.831 682.792 146.102C682.792 145.373 682.676 144.694 682.444 144.064C682.212 143.434 681.855 142.925 681.372 142.537C680.889 142.149 680.273 141.955 679.525 141.955C678.777 141.955 678.162 142.149 677.679 142.537C677.196 142.925 676.838 143.434 676.606 144.064C676.374 144.694 676.258 145.373 676.258 146.102C676.258 146.831 676.374 147.509 676.606 148.134C676.838 148.759 677.196 149.263 677.679 149.646C678.162 150.03 678.777 150.222 679.525 150.222ZM690.546 151.727C689.637 151.727 688.835 151.498 688.139 151.038C687.443 150.574 686.898 149.921 686.505 149.078C686.112 148.231 685.916 147.229 685.916 146.074C685.916 144.928 686.112 143.934 686.505 143.091C686.898 142.248 687.445 141.597 688.146 141.138C688.847 140.679 689.656 140.449 690.575 140.449C691.285 140.449 691.846 140.567 692.258 140.804C692.675 141.036 692.992 141.301 693.21 141.599C693.432 141.893 693.605 142.134 693.728 142.324H693.87V136.955H695.546V151.5H693.927V149.824H693.728C693.605 150.023 693.43 150.274 693.203 150.577C692.975 150.875 692.651 151.143 692.23 151.379C691.808 151.611 691.247 151.727 690.546 151.727ZM690.774 150.222C691.446 150.222 692.014 150.046 692.478 149.696C692.942 149.341 693.295 148.851 693.536 148.226C693.778 147.596 693.899 146.869 693.899 146.045C693.899 145.231 693.78 144.518 693.544 143.908C693.307 143.292 692.956 142.814 692.492 142.473C692.028 142.127 691.455 141.955 690.774 141.955C690.063 141.955 689.472 142.137 688.998 142.501C688.529 142.861 688.177 143.351 687.94 143.972C687.708 144.587 687.592 145.278 687.592 146.045C687.592 146.822 687.71 147.527 687.947 148.162C688.188 148.792 688.544 149.294 689.012 149.668C689.486 150.037 690.073 150.222 690.774 150.222ZM702.823 151.727C701.772 151.727 700.865 151.495 700.103 151.031C699.345 150.562 698.76 149.909 698.348 149.071C697.941 148.228 697.738 147.248 697.738 146.131C697.738 145.013 697.941 144.028 698.348 143.176C698.76 142.319 699.333 141.652 700.067 141.173C700.806 140.69 701.667 140.449 702.652 140.449C703.221 140.449 703.782 140.544 704.336 140.733C704.89 140.922 705.394 141.23 705.848 141.656C706.303 142.078 706.665 142.636 706.935 143.332C707.205 144.028 707.34 144.885 707.34 145.903V146.614H698.931V145.165H705.635C705.635 144.549 705.512 144 705.266 143.517C705.025 143.034 704.679 142.653 704.229 142.374C703.784 142.094 703.258 141.955 702.652 141.955C701.985 141.955 701.407 142.12 700.919 142.452C700.436 142.778 700.065 143.205 699.804 143.73C699.544 144.256 699.414 144.819 699.414 145.42V146.386C699.414 147.21 699.556 147.909 699.84 148.482C700.129 149.05 700.529 149.483 701.04 149.781C701.551 150.075 702.146 150.222 702.823 150.222C703.263 150.222 703.661 150.16 704.016 150.037C704.376 149.909 704.686 149.72 704.946 149.469C705.207 149.213 705.408 148.896 705.55 148.517L707.169 148.972C706.999 149.521 706.712 150.004 706.31 150.42C705.908 150.832 705.41 151.154 704.819 151.386C704.227 151.614 703.561 151.727 702.823 151.727Z" fill="white"/>
<defs>
<filter id="filter0_d_1_2" x="50.2" y="51.2" width="101.147" height="101.157" filterUnits="userSpaceOnUse" color-interpolation-filters="sRGB">
<feFlood flood-opacity="0" result="BackgroundImageFix"/>
<feColorMatrix in="SourceAlpha" type="matrix" values="0 0 0 0 0 0 0 0 0 0 0 0 0 0 0 0 0 0 127 0" result="hardAlpha"/>
<feOffset dy="1"/>
<feGaussianBlur stdDeviation="0.5"/>
<feComposite in2="hardAlpha" operator="out"/>
<feColorMatrix type="matrix" values="0 0 0 0 0 0 0 0 0 0 0 0 0 0 0 0 0 0 0.25 0"/>
<feBlend mode="normal" in2="BackgroundImageFix" result="effect1_dropShadow_1_2"/>
<feBlend mode="normal" in="SourceGraphic" in2="effect1_dropShadow_1_2" result="shape"/>
</filter>
<linearGradient id="paint0_linear_1_2" x1="0" y1="0" x2="1256.01" y2="294.376" gradientUnits="userSpaceOnUse">
<stop stop-color="#101722"/>
<stop offset="1" stop-color="#123425"/>
</linearGradient>
<linearGradient id="paint1_linear_1_2" x1="160" y1="160" x2="32" y2="32" gradientUnits="userSpaceOnUse">
<stop stop-color="#0EC375"/>
<stop offset="1" stop-color="#A1E618"/>
</linearGradient>
<linearGradient id="paint2_linear_1_2" x1="435" y1="86.1154" x2="192" y2="86.1154" gradientUnits="userSpaceOnUse">
<stop stop-color="#0EC375"/>
<stop offset="1" stop-color="#A1E618"/>
</linearGradient>
</defs>
</svg>
